<?xml version="1.0" encoding="UTF-8"?>
<svg id="Ebene_1" data-name="Ebene 1" xmlns="http://www.w3.org/2000/svg" viewBox="0 0 448.35 237.26">
  <defs>
    <style>
      .cls-1 {
        font-size: 191.71px;
      }

      .cls-1, .cls-2 {
        fill: #0073b9;
      }

      .cls-1, .cls-3 {
        font-family: PODIUMSoft-SemiCondensed, 'PODIUM Soft';
        font-variation-settings: 'wdth' 87;
      }

      .cls-3 {
        fill: #009fe3;
        font-size: 193.28px;
        stroke: #0073b9;
        stroke-miterlimit: 10;
      }
    </style>
  </defs>
  <g>
    <text class="cls-1" transform="translate(23.28 197) scale(.89 1)"><tspan x="0" y="0">P3DC</tspan></text>
    <g>
      <path class="cls-2" d="M81.3,81.52c0-.73-.12-1.34-.36-1.82-.24-.48-.6-.85-1.07-1.1-.47-.26-1.05-.43-1.73-.53-.68-.1-1.48-.14-2.4-.14h-4.02c-.91,0-1.61.27-2.1.81-.49.54-.73,1.33-.73,2.35v27.22c0,1.02.24,1.81.73,2.35.48.54,1.18.81,2.1.81h4.02c.91,0,1.71-.06,2.4-.17.68-.11,1.26-.29,1.73-.55.47-.26.83-.61,1.07-1.08.24-.46.36-1.06.36-1.8v-26.36ZM75.74,45.82c6.73,0,12.64.32,17.73.96,5.09.64,9.49,1.6,13.2,2.88,3.71,1.28,6.79,2.88,9.24,4.82,2.45,1.93,4.41,4.17,5.88,6.71,1.47,2.54,2.5,5.41,3.1,8.6.6,3.2.9,6.71.9,10.54v28.76c0,3.83-.3,7.35-.9,10.54-.6,3.2-1.63,6.06-3.1,8.6-1.47,2.54-3.43,4.78-5.88,6.71-2.45,1.93-5.53,3.54-9.24,4.82-3.71,1.28-8.11,2.24-13.2,2.88-5.09.64-11,.96-17.73.96h-3.38c-1.11,0-1.97.34-2.57,1.01-.6.67-.9,1.63-.9,2.88v39.49c0,2.72-.64,4.79-1.9,6.23-1.27,1.44-3.13,2.16-5.58,2.16h-29.52c-2.42,0-4.28-.72-5.56-2.16-1.28-1.44-1.93-3.51-1.93-6.23V54.2c0-2.75.64-4.83,1.93-6.25,1.28-1.42,3.14-2.13,5.56-2.13h43.86Z"/>
      <path class="cls-2" d="M129,158.54c0-.89.14-1.73.43-2.52.28-.78.68-1.45,1.18-2.01.5-.56,1.1-1,1.8-1.32.7-.32,1.45-.48,2.25-.48h32.77c.8,0,1.55.16,2.25.48.7.32,1.3.76,1.8,1.32.5.56.89,1.23,1.18,2.01.28.78.43,1.62.43,2.52v4.94c0,.61.13,1.11.38,1.51.26.4.64.72,1.16.96.51.24,1.18.41,1.99.5.81.1,1.78.14,2.89.14s2.07-.05,2.89-.14c.81-.1,1.48-.26,1.99-.5.51-.24.9-.56,1.16-.96.26-.4.38-.9.38-1.51v-26.36c0-.67-.08-1.25-.26-1.73-.17-.48-.49-.88-.96-1.2-.47-.32-1.11-.59-1.93-.81-.81-.22-1.88-.32-3.19-.48-1.12-.14-2.15-.51-3.1-.96-.96-.45-1.78-1.03-2.46-1.75-.68-.72-1.23-1.56-1.63-2.52-.4-.96-.6-2.03-.6-3.21v-12.08c0-1.18.18-2.26.54-3.23.36-.97.86-1.82,1.5-2.54.64-.72,1.41-1.29,2.29-1.73.88-.43,1.87-.74,2.95-.84,1.42-.13,2.58-.25,3.47-.46.88-.21,1.58-.47,2.08-.79.5-.32.84-.73,1.03-1.25.18-.51.28-1.12.28-1.82v-22.53c0-.61-.13-1.12-.38-1.53-.26-.42-.64-.74-1.16-.98-.51-.24-1.18-.4-1.99-.48-.81-.08-1.78-.12-2.89-.12s-2.08.04-2.89.12c-.81.08-1.48.24-1.99.48-.51.24-.9.57-1.16.98-.26.42-.38.93-.38,1.53v4.94c0,.89-.14,1.73-.43,2.52-.29.78-.68,1.45-1.18,2.01-.5.56-1.1,1-1.8,1.32-.7.32-1.45.48-2.25.48h-32.77c-.8,0-1.55-.16-2.25-.48-.7-.32-1.3-.76-1.8-1.32-.5-.56-.89-1.23-1.18-2.01-.29-.78-.43-1.62-.43-2.52v-4.22c0-3.51.32-6.81.96-9.9.64-3.08,1.73-5.9,3.25-8.46,1.53-2.56,3.54-4.83,6.05-6.83,2.51-2,5.63-3.69,9.37-5.08,3.74-1.39,8.15-2.44,13.24-3.16,5.09-.72,10.96-1.08,17.61-1.08s12.55.34,17.63,1.01,9.48,1.67,13.22,3c3.74,1.33,6.86,2.96,9.37,4.89,2.51,1.93,4.53,4.16,6.06,6.69,1.53,2.52,2.61,5.33,3.25,8.41.64,3.08.96,6.43.96,10.04v19.65c0,3.8-.31,7.23-.92,10.28-.61,3.05-1.78,5.73-3.49,8.03-.91,1.28-1.38,2.47-1.39,3.57-.01,1.1.43,2.31,1.35,3.62,1.71,2.4,2.88,5.14,3.51,8.24.63,3.1.94,6.55.94,10.35v23c0,3.61-.32,6.94-.96,9.99-.64,3.05-1.73,5.82-3.25,8.32-1.53,2.49-3.54,4.69-6.06,6.59-2.51,1.9-5.63,3.5-9.37,4.79-3.74,1.29-8.14,2.26-13.22,2.9-5.08.64-10.95.96-17.63.96s-12.52-.37-17.61-1.1c-5.09-.74-9.51-1.82-13.24-3.26-3.74-1.44-6.86-3.17-9.37-5.2-2.51-2.03-4.53-4.34-6.05-6.95-1.53-2.6-2.61-5.46-3.25-8.56-.64-3.1-.96-6.41-.96-9.92v-4.22Z"/>
      <path class="cls-2" d="M292.44,82c0-.86-.13-1.56-.38-2.11-.26-.54-.67-.96-1.24-1.25-.57-.29-1.32-.48-2.25-.58-.93-.1-2.06-.14-3.4-.14h-3.17c-.91,0-1.61.27-2.1.81-.49.54-.73,1.33-.73,2.35v78.98c0,1.02.24,1.81.73,2.35.48.54,1.18.81,2.1.81h3.17c1.34,0,2.47-.06,3.4-.17.93-.11,1.67-.31,2.25-.6.57-.29.98-.69,1.24-1.22.26-.53.38-1.22.38-2.08v-77.16ZM285.17,45.82c6.93,0,13.03.34,18.29,1.01s9.81,1.66,13.65,2.97c3.84,1.31,7.02,2.95,9.56,4.91,2.54,1.97,4.57,4.24,6.1,6.83,1.53,2.59,2.6,5.49,3.23,8.7.63,3.21.94,6.73.94,10.57v79.56c0,3.83-.31,7.36-.94,10.57-.63,3.21-1.71,6.11-3.23,8.7-1.53,2.59-3.56,4.86-6.1,6.83-2.54,1.97-5.73,3.6-9.56,4.91-3.84,1.31-8.39,2.3-13.65,2.97s-11.36,1.01-18.29,1.01h-43c-2.42,0-4.28-.72-5.56-2.16-1.28-1.44-1.92-3.51-1.92-6.23V54.2c0-2.75.64-4.83,1.92-6.25,1.28-1.42,3.14-2.13,5.56-2.13h43Z"/>
      <path class="cls-2" d="M374.7,196.71c-5.26-.69-9.81-1.71-13.65-3.07-3.84-1.36-7.02-3.04-9.56-5.03-2.54-2-4.57-4.31-6.1-6.93-1.53-2.62-2.6-5.55-3.23-8.79-.63-3.24-.94-6.78-.94-10.62v-83.39c0-3.83.31-7.37.94-10.62.63-3.24,1.7-6.17,3.23-8.79,1.53-2.62,3.56-4.93,6.1-6.93,2.54-2,5.73-3.67,9.56-5.03,3.84-1.36,8.39-2.38,13.65-3.07,5.26-.69,11.36-1.03,18.29-1.03s13.03.34,18.29,1.03c5.26.69,9.81,1.71,13.65,3.07,3.84,1.36,7.02,3.04,9.56,5.03,2.54,2,4.57,4.31,6.1,6.93,1.53,2.62,2.6,5.55,3.23,8.79.63,3.24.94,6.78.94,10.62v14.47c0,2.62-.61,4.62-1.82,5.99-1.21,1.37-2.99,2.06-5.33,2.06h-31.66c-1.85,0-3.27-.54-4.24-1.63-.97-1.09-1.46-2.65-1.46-4.7v-15c0-.86-.13-1.56-.38-2.11-.26-.54-.67-.96-1.24-1.25s-1.32-.48-2.25-.58c-.93-.1-2.06-.14-3.4-.14s-2.43.05-3.36.14c-.93.1-1.68.29-2.25.58s-.99.7-1.26,1.25c-.27.54-.41,1.25-.41,2.11v81c0,.86.13,1.56.41,2.08.27.53.69.93,1.26,1.22s1.32.49,2.25.6c.93.11,2.05.17,3.36.17s2.47-.06,3.4-.17c.93-.11,1.68-.31,2.25-.6s.98-.69,1.24-1.22c.26-.53.38-1.22.38-2.08v-15c0-2.08.48-3.65,1.46-4.72.97-1.07,2.38-1.61,4.24-1.61h31.66c2.34,0,4.11.68,5.33,2.04,1.21,1.36,1.82,3.36,1.82,6.01v14.47c0,3.83-.31,7.37-.94,10.62-.63,3.24-1.7,6.17-3.23,8.79-1.53,2.62-3.56,4.93-6.1,6.93-2.54,2-5.73,3.67-9.56,5.03-3.84,1.36-8.39,2.38-13.65,3.07-5.26.69-11.36,1.03-18.29,1.03s-13.03-.34-18.29-1.03Z"/>
    </g>
    <g>
      <path class="cls-2" d="M79.84,79.87c0-.73-.12-1.34-.36-1.82-.24-.48-.6-.85-1.07-1.1-.47-.26-1.05-.43-1.73-.53-.68-.1-1.48-.14-2.4-.14h-4.02c-.91,0-1.61.27-2.1.81-.49.54-.73,1.33-.73,2.35v27.22c0,1.02.24,1.81.73,2.35.48.54,1.18.81,2.1.81h4.02c.91,0,1.71-.06,2.4-.17.68-.11,1.26-.29,1.73-.55.47-.26.83-.61,1.07-1.08.24-.46.36-1.06.36-1.8v-26.36ZM74.28,44.17c6.73,0,12.64.32,17.73.96,5.09.64,9.49,1.6,13.2,2.88,3.71,1.28,6.79,2.88,9.24,4.82,2.45,1.93,4.41,4.17,5.88,6.71,1.47,2.54,2.5,5.41,3.1,8.6.6,3.2.9,6.71.9,10.54v28.76c0,3.83-.3,7.35-.9,10.54-.6,3.2-1.63,6.06-3.1,8.6-1.47,2.54-3.43,4.78-5.88,6.71-2.45,1.93-5.53,3.54-9.24,4.82-3.71,1.28-8.11,2.24-13.2,2.88-5.09.64-11,.96-17.73.96h-3.38c-1.11,0-1.97.34-2.57,1.01-.6.67-.9,1.63-.9,2.88v39.49c0,2.72-.64,4.79-1.9,6.23-1.27,1.44-3.13,2.16-5.58,2.16h-29.52c-2.42,0-4.28-.72-5.56-2.16-1.28-1.44-1.93-3.51-1.93-6.23V52.55c0-2.75.64-4.83,1.93-6.25,1.28-1.42,3.14-2.13,5.56-2.13h43.86Z"/>
      <path class="cls-2" d="M127.55,156.89c0-.89.14-1.73.43-2.52.28-.78.68-1.45,1.18-2.01.5-.56,1.1-1,1.8-1.32.7-.32,1.45-.48,2.25-.48h32.77c.8,0,1.55.16,2.25.48.7.32,1.3.76,1.8,1.32.5.56.89,1.23,1.18,2.01.28.78.43,1.62.43,2.52v4.94c0,.61.13,1.11.38,1.51.26.4.64.72,1.16.96.51.24,1.18.41,1.99.5.81.1,1.78.14,2.89.14s2.07-.05,2.89-.14c.81-.1,1.48-.26,1.99-.5.51-.24.9-.56,1.16-.96.26-.4.38-.9.38-1.51v-26.36c0-.67-.08-1.25-.26-1.73-.17-.48-.49-.88-.96-1.2-.47-.32-1.11-.59-1.93-.81-.81-.22-1.88-.32-3.19-.48-1.12-.14-2.15-.51-3.1-.96-.96-.45-1.78-1.03-2.46-1.75-.68-.72-1.23-1.56-1.63-2.52-.4-.96-.6-2.03-.6-3.21v-12.08c0-1.18.18-2.26.54-3.23.36-.97.86-1.82,1.5-2.54.64-.72,1.41-1.29,2.29-1.73.88-.43,1.87-.74,2.95-.84,1.42-.13,2.58-.25,3.47-.46.88-.21,1.58-.47,2.08-.79.5-.32.84-.73,1.03-1.25.18-.51.28-1.12.28-1.82v-22.53c0-.61-.13-1.12-.38-1.53-.26-.42-.64-.74-1.16-.98-.51-.24-1.18-.4-1.99-.48-.81-.08-1.78-.12-2.89-.12s-2.08.04-2.89.12c-.81.08-1.48.24-1.99.48-.51.24-.9.57-1.16.98-.26.42-.38.93-.38,1.53v4.94c0,.89-.14,1.73-.43,2.52-.29.78-.68,1.45-1.18,2.01-.5.56-1.1,1-1.8,1.32-.7.32-1.45.48-2.25.48h-32.77c-.8,0-1.55-.16-2.25-.48-.7-.32-1.3-.76-1.8-1.32-.5-.56-.89-1.23-1.18-2.01-.29-.78-.43-1.62-.43-2.52v-4.22c0-3.51.32-6.81.96-9.9.64-3.08,1.73-5.9,3.25-8.46,1.53-2.56,3.54-4.83,6.05-6.83,2.51-2,5.63-3.69,9.37-5.08,3.74-1.39,8.15-2.44,13.24-3.16,5.09-.72,10.96-1.08,17.61-1.08s12.55.34,17.63,1.01,9.48,1.67,13.22,3c3.74,1.33,6.86,2.96,9.37,4.89,2.51,1.93,4.53,4.16,6.06,6.69,1.53,2.52,2.61,5.33,3.25,8.41.64,3.08.96,6.43.96,10.04v19.65c0,3.8-.31,7.23-.92,10.28-.61,3.05-1.78,5.73-3.49,8.03-.91,1.28-1.38,2.47-1.39,3.57-.01,1.1.43,2.31,1.35,3.62,1.71,2.4,2.88,5.14,3.51,8.24.63,3.1.94,6.55.94,10.35v23c0,3.61-.32,6.94-.96,9.99-.64,3.05-1.73,5.82-3.25,8.32-1.53,2.49-3.54,4.69-6.06,6.59-2.51,1.9-5.63,3.5-9.37,4.79-3.74,1.29-8.14,2.26-13.22,2.9-5.08.64-10.95.96-17.63.96s-12.52-.37-17.61-1.1c-5.09-.74-9.51-1.82-13.24-3.26-3.74-1.44-6.86-3.17-9.37-5.2-2.51-2.03-4.53-4.34-6.05-6.95-1.53-2.6-2.61-5.46-3.25-8.56-.64-3.1-.96-6.41-.96-9.92v-4.22Z"/>
      <path class="cls-2" d="M290.99,80.35c0-.86-.13-1.56-.38-2.11-.26-.54-.67-.96-1.24-1.25-.57-.29-1.32-.48-2.25-.58-.93-.1-2.06-.14-3.4-.14h-3.17c-.91,0-1.61.27-2.1.81-.49.54-.73,1.33-.73,2.35v78.98c0,1.02.24,1.81.73,2.35.48.54,1.18.81,2.1.81h3.17c1.34,0,2.47-.06,3.4-.17.93-.11,1.67-.31,2.25-.6.57-.29.98-.69,1.24-1.22.26-.53.38-1.22.38-2.08v-77.16ZM283.71,44.17c6.93,0,13.03.34,18.29,1.01s9.81,1.66,13.65,2.97c3.84,1.31,7.02,2.95,9.56,4.91,2.54,1.97,4.57,4.24,6.1,6.83,1.53,2.59,2.6,5.49,3.23,8.7.63,3.21.94,6.73.94,10.57v79.56c0,3.83-.31,7.36-.94,10.57-.63,3.21-1.71,6.11-3.23,8.7-1.53,2.59-3.56,4.86-6.1,6.83-2.54,1.97-5.73,3.6-9.56,4.91-3.84,1.31-8.39,2.3-13.65,2.97s-11.36,1.01-18.29,1.01h-43c-2.42,0-4.28-.72-5.56-2.16-1.28-1.44-1.92-3.51-1.92-6.23V52.55c0-2.75.64-4.83,1.92-6.25,1.28-1.42,3.14-2.13,5.56-2.13h43Z"/>
      <path class="cls-2" d="M373.24,195.06c-5.26-.69-9.81-1.71-13.65-3.07-3.84-1.36-7.02-3.04-9.56-5.03-2.54-2-4.57-4.31-6.1-6.93-1.53-2.62-2.6-5.55-3.23-8.79-.63-3.24-.94-6.78-.94-10.62v-83.39c0-3.83.31-7.37.94-10.62.63-3.24,1.7-6.17,3.23-8.79,1.53-2.62,3.56-4.93,6.1-6.93,2.54-2,5.73-3.67,9.56-5.03,3.84-1.36,8.39-2.38,13.65-3.07,5.26-.69,11.36-1.03,18.29-1.03s13.03.34,18.29,1.03c5.26.69,9.81,1.71,13.65,3.07,3.84,1.36,7.02,3.04,9.56,5.03,2.54,2,4.57,4.31,6.1,6.93,1.53,2.62,2.6,5.55,3.23,8.79.63,3.24.94,6.78.94,10.62v14.47c0,2.62-.61,4.62-1.82,5.99-1.21,1.37-2.99,2.06-5.33,2.06h-31.66c-1.85,0-3.27-.54-4.24-1.63-.97-1.09-1.46-2.65-1.46-4.7v-15c0-.86-.13-1.56-.38-2.11-.26-.54-.67-.96-1.24-1.25s-1.32-.48-2.25-.58c-.93-.1-2.06-.14-3.4-.14s-2.43.05-3.36.14c-.93.1-1.68.29-2.25.58s-.99.7-1.26,1.25c-.27.54-.41,1.25-.41,2.11v81c0,.86.13,1.56.41,2.08.27.53.69.93,1.26,1.22s1.32.49,2.25.6c.93.11,2.05.17,3.36.17s2.47-.06,3.4-.17c.93-.11,1.68-.31,2.25-.6s.98-.69,1.24-1.22c.26-.53.38-1.22.38-2.08v-15c0-2.08.48-3.65,1.46-4.72.97-1.07,2.38-1.61,4.24-1.61h31.66c2.34,0,4.11.68,5.33,2.04,1.21,1.36,1.82,3.36,1.82,6.01v14.47c0,3.83-.31,7.37-.94,10.62-.63,3.24-1.7,6.17-3.23,8.79-1.53,2.62-3.56,4.93-6.1,6.93-2.54,2-5.73,3.67-9.56,5.03-3.84,1.36-8.39,2.38-13.65,3.07-5.26.69-11.36,1.03-18.29,1.03s-13.03-.34-18.29-1.03Z"/>
    </g>
    <g>
      <path class="cls-2" d="M78.39,78.22c0-.73-.12-1.34-.36-1.82-.24-.48-.6-.85-1.07-1.1-.47-.26-1.05-.43-1.73-.53-.68-.1-1.48-.14-2.4-.14h-4.02c-.91,0-1.61.27-2.1.81-.49.54-.73,1.33-.73,2.35v27.22c0,1.02.24,1.81.73,2.35.48.54,1.18.81,2.1.81h4.02c.91,0,1.71-.06,2.4-.17.68-.11,1.26-.29,1.73-.55.47-.26.83-.61,1.07-1.08.24-.46.36-1.06.36-1.8v-26.36ZM72.83,42.52c6.73,0,12.64.32,17.73.96,5.09.64,9.49,1.6,13.2,2.88,3.71,1.28,6.79,2.88,9.24,4.82,2.45,1.93,4.41,4.17,5.88,6.71,1.47,2.54,2.5,5.41,3.1,8.6.6,3.2.9,6.71.9,10.54v28.76c0,3.83-.3,7.35-.9,10.54-.6,3.2-1.63,6.06-3.1,8.6-1.47,2.54-3.43,4.78-5.88,6.71-2.45,1.93-5.53,3.54-9.24,4.82-3.71,1.28-8.11,2.24-13.2,2.88-5.09.64-11,.96-17.73.96h-3.38c-1.11,0-1.97.34-2.57,1.01-.6.67-.9,1.63-.9,2.88v39.49c0,2.72-.64,4.79-1.9,6.23-1.27,1.44-3.13,2.16-5.58,2.16h-29.52c-2.42,0-4.28-.72-5.56-2.16-1.28-1.44-1.93-3.51-1.93-6.23V50.91c0-2.75.64-4.83,1.93-6.25,1.28-1.42,3.14-2.13,5.56-2.13h43.86Z"/>
      <path class="cls-2" d="M126.09,155.24c0-.89.14-1.73.43-2.52.28-.78.68-1.45,1.18-2.01.5-.56,1.1-1,1.8-1.32.7-.32,1.45-.48,2.25-.48h32.77c.8,0,1.55.16,2.25.48.7.32,1.3.76,1.8,1.32.5.56.89,1.23,1.18,2.01.28.78.43,1.62.43,2.52v4.94c0,.61.13,1.11.38,1.51.26.4.64.72,1.16.96.51.24,1.18.41,1.99.5.81.1,1.78.14,2.89.14s2.07-.05,2.89-.14c.81-.1,1.48-.26,1.99-.5.51-.24.9-.56,1.16-.96.26-.4.38-.9.38-1.51v-26.36c0-.67-.08-1.25-.26-1.73-.17-.48-.49-.88-.96-1.2-.47-.32-1.11-.59-1.93-.81-.81-.22-1.88-.32-3.19-.48-1.12-.14-2.15-.51-3.1-.96-.96-.45-1.78-1.03-2.46-1.75-.68-.72-1.23-1.56-1.63-2.52-.4-.96-.6-2.03-.6-3.21v-12.08c0-1.18.18-2.26.54-3.23.36-.97.86-1.82,1.5-2.54.64-.72,1.41-1.29,2.29-1.73.88-.43,1.87-.74,2.95-.84,1.42-.13,2.58-.25,3.47-.46.88-.21,1.58-.47,2.08-.79.5-.32.84-.73,1.03-1.25.18-.51.28-1.12.28-1.82v-22.53c0-.61-.13-1.12-.38-1.53-.26-.42-.64-.74-1.16-.98-.51-.24-1.18-.4-1.99-.48-.81-.08-1.78-.12-2.89-.12s-2.08.04-2.89.12c-.81.08-1.48.24-1.99.48-.51.24-.9.57-1.16.98-.26.42-.38.93-.38,1.53v4.94c0,.89-.14,1.73-.43,2.52-.29.78-.68,1.45-1.18,2.01-.5.56-1.1,1-1.8,1.32-.7.32-1.45.48-2.25.48h-32.77c-.8,0-1.55-.16-2.25-.48-.7-.32-1.3-.76-1.8-1.32-.5-.56-.89-1.23-1.18-2.01-.29-.78-.43-1.62-.43-2.52v-4.22c0-3.51.32-6.81.96-9.9.64-3.08,1.73-5.9,3.25-8.46,1.53-2.56,3.54-4.83,6.05-6.83,2.51-2,5.63-3.69,9.37-5.08,3.74-1.39,8.15-2.44,13.24-3.16,5.09-.72,10.96-1.08,17.61-1.08s12.55.34,17.63,1.01,9.48,1.67,13.22,3c3.74,1.33,6.86,2.96,9.37,4.89,2.51,1.93,4.53,4.16,6.06,6.69,1.53,2.52,2.61,5.33,3.25,8.41.64,3.08.96,6.43.96,10.04v19.65c0,3.8-.31,7.23-.92,10.28-.61,3.05-1.78,5.73-3.49,8.03-.91,1.28-1.38,2.47-1.39,3.57-.01,1.1.43,2.31,1.35,3.62,1.71,2.4,2.88,5.14,3.51,8.24.63,3.1.94,6.55.94,10.35v23c0,3.61-.32,6.94-.96,9.99-.64,3.05-1.73,5.82-3.25,8.32-1.53,2.49-3.54,4.69-6.06,6.59-2.51,1.9-5.63,3.5-9.37,4.79-3.74,1.29-8.14,2.26-13.22,2.9-5.08.64-10.95.96-17.63.96s-12.52-.37-17.61-1.1c-5.09-.74-9.51-1.82-13.24-3.26-3.74-1.44-6.86-3.17-9.37-5.2-2.51-2.03-4.53-4.34-6.05-6.95-1.53-2.6-2.61-5.46-3.25-8.56-.64-3.1-.96-6.41-.96-9.92v-4.22Z"/>
      <path class="cls-2" d="M289.53,78.7c0-.86-.13-1.56-.38-2.11-.26-.54-.67-.96-1.24-1.25-.57-.29-1.32-.48-2.25-.58-.93-.1-2.06-.14-3.4-.14h-3.17c-.91,0-1.61.27-2.1.81-.49.54-.73,1.33-.73,2.35v78.98c0,1.02.24,1.81.73,2.35.48.54,1.18.81,2.1.81h3.17c1.34,0,2.47-.06,3.4-.17.93-.11,1.67-.31,2.25-.6.57-.29.98-.69,1.24-1.22.26-.53.38-1.22.38-2.08v-77.16ZM282.26,42.52c6.93,0,13.03.34,18.29,1.01s9.81,1.66,13.65,2.97c3.84,1.31,7.02,2.95,9.56,4.91,2.54,1.97,4.57,4.24,6.1,6.83,1.53,2.59,2.6,5.49,3.23,8.7.63,3.21.94,6.73.94,10.57v79.56c0,3.83-.31,7.36-.94,10.57-.63,3.21-1.71,6.11-3.23,8.7-1.53,2.59-3.56,4.86-6.1,6.83-2.54,1.97-5.73,3.6-9.56,4.91-3.84,1.31-8.39,2.3-13.65,2.97s-11.36,1.01-18.29,1.01h-43c-2.42,0-4.28-.72-5.56-2.16-1.28-1.44-1.92-3.51-1.92-6.23V50.91c0-2.75.64-4.83,1.92-6.25,1.28-1.42,3.14-2.13,5.56-2.13h43Z"/>
      <path class="cls-2" d="M371.79,193.42c-5.26-.69-9.81-1.71-13.65-3.07-3.84-1.36-7.02-3.04-9.56-5.03-2.54-2-4.57-4.31-6.1-6.93-1.53-2.62-2.6-5.55-3.23-8.79-.63-3.24-.94-6.78-.94-10.62v-83.39c0-3.83.31-7.37.94-10.62.63-3.24,1.7-6.17,3.23-8.79,1.53-2.62,3.56-4.93,6.1-6.93,2.54-2,5.73-3.67,9.56-5.03,3.84-1.36,8.39-2.38,13.65-3.07,5.26-.69,11.36-1.03,18.29-1.03s13.03.34,18.29,1.03c5.26.69,9.81,1.71,13.65,3.07,3.84,1.36,7.02,3.04,9.56,5.03,2.54,2,4.57,4.31,6.1,6.93,1.53,2.62,2.6,5.55,3.23,8.79.63,3.24.94,6.78.94,10.62v14.47c0,2.62-.61,4.62-1.82,5.99-1.21,1.37-2.99,2.06-5.33,2.06h-31.66c-1.85,0-3.27-.54-4.24-1.63-.97-1.09-1.46-2.65-1.46-4.7v-15c0-.86-.13-1.56-.38-2.11-.26-.54-.67-.96-1.24-1.25s-1.32-.48-2.25-.58c-.93-.1-2.06-.14-3.4-.14s-2.43.05-3.36.14c-.93.1-1.68.29-2.25.58s-.99.7-1.26,1.25c-.27.54-.41,1.25-.41,2.11v81c0,.86.13,1.56.41,2.08.27.53.69.93,1.26,1.22s1.32.49,2.25.6c.93.11,2.05.17,3.36.17s2.47-.06,3.4-.17c.93-.11,1.68-.31,2.25-.6s.98-.69,1.24-1.22c.26-.53.38-1.22.38-2.08v-15c0-2.08.48-3.65,1.46-4.72.97-1.07,2.38-1.61,4.24-1.61h31.66c2.34,0,4.11.68,5.33,2.04,1.21,1.36,1.82,3.36,1.82,6.01v14.47c0,3.83-.31,7.37-.94,10.62-.63,3.24-1.7,6.17-3.23,8.79-1.53,2.62-3.56,4.93-6.1,6.93-2.54,2-5.73,3.67-9.56,5.03-3.84,1.36-8.39,2.38-13.65,3.07-5.26.69-11.36,1.03-18.29,1.03s-13.03-.34-18.29-1.03Z"/>
    </g>
    <g>
      <path class="cls-2" d="M76.93,76.58c0-.73-.12-1.34-.36-1.82-.24-.48-.6-.85-1.07-1.1-.47-.26-1.05-.43-1.73-.53-.68-.1-1.48-.14-2.4-.14h-4.02c-.91,0-1.61.27-2.1.81-.49.54-.73,1.33-.73,2.35v27.22c0,1.02.24,1.81.73,2.35.48.54,1.18.81,2.1.81h4.02c.91,0,1.71-.06,2.4-.17.68-.11,1.26-.29,1.73-.55.47-.26.83-.61,1.07-1.08.24-.46.36-1.06.36-1.8v-26.36ZM71.37,40.87c6.73,0,12.64.32,17.73.96,5.09.64,9.49,1.6,13.2,2.88,3.71,1.28,6.79,2.88,9.24,4.82,2.45,1.93,4.41,4.17,5.88,6.71,1.47,2.54,2.5,5.41,3.1,8.6.6,3.2.9,6.71.9,10.54v28.76c0,3.83-.3,7.35-.9,10.54-.6,3.2-1.63,6.06-3.1,8.6-1.47,2.54-3.43,4.78-5.88,6.71-2.45,1.93-5.53,3.54-9.24,4.82-3.71,1.28-8.11,2.24-13.2,2.88-5.09.64-11,.96-17.73.96h-3.38c-1.11,0-1.97.34-2.57,1.01-.6.67-.9,1.63-.9,2.88v39.49c0,2.72-.64,4.79-1.9,6.23-1.27,1.44-3.13,2.16-5.58,2.16h-29.52c-2.42,0-4.28-.72-5.56-2.16-1.28-1.44-1.93-3.51-1.93-6.23V49.26c0-2.75.64-4.83,1.93-6.25,1.28-1.42,3.14-2.13,5.56-2.13h43.86Z"/>
      <path class="cls-2" d="M124.64,153.59c0-.89.14-1.73.43-2.52.28-.78.68-1.45,1.18-2.01.5-.56,1.1-1,1.8-1.32.7-.32,1.45-.48,2.25-.48h32.77c.8,0,1.55.16,2.25.48.7.32,1.3.76,1.8,1.32.5.56.89,1.23,1.18,2.01.28.78.43,1.62.43,2.52v4.94c0,.61.13,1.11.38,1.51.26.4.64.72,1.16.96.51.24,1.18.41,1.99.5.81.1,1.78.14,2.89.14s2.07-.05,2.89-.14c.81-.1,1.48-.26,1.99-.5.51-.24.9-.56,1.16-.96.26-.4.38-.9.38-1.51v-26.36c0-.67-.08-1.25-.26-1.73-.17-.48-.49-.88-.96-1.2-.47-.32-1.11-.59-1.93-.81-.81-.22-1.88-.32-3.19-.48-1.12-.14-2.15-.51-3.1-.96-.96-.45-1.78-1.03-2.46-1.75-.68-.72-1.23-1.56-1.63-2.52-.4-.96-.6-2.03-.6-3.21v-12.08c0-1.18.18-2.26.54-3.23.36-.97.86-1.82,1.5-2.54.64-.72,1.41-1.29,2.29-1.73.88-.43,1.87-.74,2.95-.84,1.42-.13,2.58-.25,3.47-.46.88-.21,1.58-.47,2.08-.79.5-.32.84-.73,1.03-1.25.18-.51.28-1.12.28-1.82v-22.53c0-.61-.13-1.12-.38-1.53-.26-.42-.64-.74-1.16-.98-.51-.24-1.18-.4-1.99-.48-.81-.08-1.78-.12-2.89-.12s-2.08.04-2.89.12c-.81.08-1.48.24-1.99.48-.51.24-.9.57-1.16.98-.26.42-.38.93-.38,1.53v4.94c0,.89-.14,1.73-.43,2.52-.29.78-.68,1.45-1.18,2.01-.5.56-1.1,1-1.8,1.32-.7.32-1.45.48-2.25.48h-32.77c-.8,0-1.55-.16-2.25-.48-.7-.32-1.3-.76-1.8-1.32-.5-.56-.89-1.23-1.18-2.01-.29-.78-.43-1.62-.43-2.52v-4.22c0-3.51.32-6.81.96-9.9.64-3.08,1.73-5.9,3.25-8.46,1.53-2.56,3.54-4.83,6.05-6.83,2.51-2,5.63-3.69,9.37-5.08,3.74-1.39,8.15-2.44,13.24-3.16,5.09-.72,10.96-1.08,17.61-1.08s12.55.34,17.63,1.01,9.48,1.67,13.22,3c3.74,1.33,6.86,2.96,9.37,4.89,2.51,1.93,4.53,4.16,6.06,6.69,1.53,2.52,2.61,5.33,3.25,8.41.64,3.08.96,6.43.96,10.04v19.65c0,3.8-.31,7.23-.92,10.28-.61,3.05-1.78,5.73-3.49,8.03-.91,1.28-1.38,2.47-1.39,3.57-.01,1.1.43,2.31,1.35,3.62,1.71,2.4,2.88,5.14,3.51,8.24.63,3.1.94,6.55.94,10.35v23c0,3.61-.32,6.94-.96,9.99-.64,3.05-1.73,5.82-3.25,8.32-1.53,2.49-3.54,4.69-6.06,6.59-2.51,1.9-5.63,3.5-9.37,4.79-3.74,1.29-8.14,2.26-13.22,2.9-5.08.64-10.95.96-17.63.96s-12.52-.37-17.61-1.1c-5.09-.74-9.51-1.82-13.24-3.26-3.74-1.44-6.86-3.17-9.37-5.2-2.51-2.03-4.53-4.34-6.05-6.95-1.53-2.6-2.61-5.46-3.25-8.56-.64-3.1-.96-6.41-.96-9.92v-4.22Z"/>
      <path class="cls-2" d="M288.08,77.05c0-.86-.13-1.56-.38-2.11-.26-.54-.67-.96-1.24-1.25-.57-.29-1.32-.48-2.25-.58-.93-.1-2.06-.14-3.4-.14h-3.17c-.91,0-1.61.27-2.1.81-.49.54-.73,1.33-.73,2.35v78.98c0,1.02.24,1.81.73,2.35.48.54,1.18.81,2.1.81h3.17c1.34,0,2.47-.06,3.4-.17.93-.11,1.67-.31,2.25-.6.57-.29.98-.69,1.24-1.22.26-.53.38-1.22.38-2.08v-77.16ZM280.8,40.87c6.93,0,13.03.34,18.29,1.01s9.81,1.66,13.65,2.97c3.84,1.31,7.02,2.95,9.56,4.91,2.54,1.97,4.57,4.24,6.1,6.83,1.53,2.59,2.6,5.49,3.23,8.7.63,3.21.94,6.73.94,10.57v79.56c0,3.83-.31,7.36-.94,10.57-.63,3.21-1.71,6.11-3.23,8.7-1.53,2.59-3.56,4.86-6.1,6.83-2.54,1.97-5.73,3.6-9.56,4.91-3.84,1.31-8.39,2.3-13.65,2.97s-11.36,1.01-18.29,1.01h-43c-2.42,0-4.28-.72-5.56-2.16-1.28-1.44-1.92-3.51-1.92-6.23V49.26c0-2.75.64-4.83,1.92-6.25,1.28-1.42,3.14-2.13,5.56-2.13h43Z"/>
      <path class="cls-2" d="M370.33,191.77c-5.26-.69-9.81-1.71-13.65-3.07-3.84-1.36-7.02-3.04-9.56-5.03-2.54-2-4.57-4.31-6.1-6.93-1.53-2.62-2.6-5.55-3.23-8.79-.63-3.24-.94-6.78-.94-10.62v-83.39c0-3.83.31-7.37.94-10.62.63-3.24,1.7-6.17,3.23-8.79,1.53-2.62,3.56-4.93,6.1-6.93,2.54-2,5.73-3.67,9.56-5.03,3.84-1.36,8.39-2.38,13.65-3.07,5.26-.69,11.36-1.03,18.29-1.03s13.03.34,18.29,1.03c5.26.69,9.81,1.71,13.65,3.07,3.84,1.36,7.02,3.04,9.56,5.03,2.54,2,4.57,4.31,6.1,6.93,1.53,2.62,2.6,5.55,3.23,8.79.63,3.24.94,6.78.94,10.62v14.47c0,2.62-.61,4.62-1.82,5.99-1.21,1.37-2.99,2.06-5.33,2.06h-31.66c-1.85,0-3.27-.54-4.24-1.63-.97-1.09-1.46-2.65-1.46-4.7v-15c0-.86-.13-1.56-.38-2.11-.26-.54-.67-.96-1.24-1.25s-1.32-.48-2.25-.58c-.93-.1-2.06-.14-3.4-.14s-2.43.05-3.36.14c-.93.1-1.68.29-2.25.58s-.99.7-1.26,1.25c-.27.54-.41,1.25-.41,2.11v81c0,.86.13,1.56.41,2.08.27.53.69.93,1.26,1.22s1.32.49,2.25.6c.93.11,2.05.17,3.36.17s2.47-.06,3.4-.17c.93-.11,1.68-.31,2.25-.6s.98-.69,1.24-1.22c.26-.53.38-1.22.38-2.08v-15c0-2.08.48-3.65,1.46-4.72.97-1.07,2.38-1.61,4.24-1.61h31.66c2.34,0,4.11.68,5.33,2.04,1.21,1.36,1.82,3.36,1.82,6.01v14.47c0,3.83-.31,7.37-.94,10.62-.63,3.24-1.7,6.17-3.23,8.79-1.53,2.62-3.56,4.93-6.1,6.93-2.54,2-5.73,3.67-9.56,5.03-3.84,1.36-8.39,2.38-13.65,3.07-5.26.69-11.36,1.03-18.29,1.03s-13.03-.34-18.29-1.03Z"/>
    </g>
    <g>
      <path class="cls-2" d="M75.48,74.93c0-.73-.12-1.34-.36-1.82-.24-.48-.6-.85-1.07-1.1-.47-.26-1.05-.43-1.73-.53-.68-.1-1.48-.14-2.4-.14h-4.02c-.91,0-1.61.27-2.1.81-.49.54-.73,1.33-.73,2.35v27.22c0,1.02.24,1.81.73,2.35.48.54,1.18.81,2.1.81h4.02c.91,0,1.71-.06,2.4-.17.68-.11,1.26-.29,1.73-.55.47-.26.83-.61,1.07-1.08.24-.46.36-1.06.36-1.8v-26.36ZM69.92,39.22c6.73,0,12.64.32,17.73.96,5.09.64,9.49,1.6,13.2,2.88,3.71,1.28,6.79,2.88,9.24,4.82,2.45,1.93,4.41,4.17,5.88,6.71,1.47,2.54,2.5,5.41,3.1,8.6.6,3.2.9,6.71.9,10.54v28.76c0,3.83-.3,7.35-.9,10.54-.6,3.2-1.63,6.06-3.1,8.6-1.47,2.54-3.43,4.78-5.88,6.71-2.45,1.93-5.53,3.54-9.24,4.82-3.71,1.28-8.11,2.24-13.2,2.88-5.09.64-11,.96-17.73.96h-3.38c-1.11,0-1.97.34-2.57,1.01-.6.67-.9,1.63-.9,2.88v39.49c0,2.72-.64,4.79-1.9,6.23-1.27,1.44-3.13,2.16-5.58,2.16h-29.52c-2.42,0-4.28-.72-5.56-2.16-1.28-1.44-1.93-3.51-1.93-6.23V47.61c0-2.75.64-4.83,1.93-6.25,1.28-1.42,3.14-2.13,5.56-2.13h43.86Z"/>
      <path class="cls-2" d="M123.18,151.95c0-.89.14-1.73.43-2.52.28-.78.68-1.45,1.18-2.01.5-.56,1.1-1,1.8-1.32.7-.32,1.45-.48,2.25-.48h32.77c.8,0,1.55.16,2.25.48.7.32,1.3.76,1.8,1.32.5.56.89,1.23,1.18,2.01.28.78.43,1.62.43,2.52v4.94c0,.61.13,1.11.38,1.51.26.4.64.72,1.16.96.51.24,1.18.41,1.99.5.81.1,1.78.14,2.89.14s2.07-.05,2.89-.14c.81-.1,1.48-.26,1.99-.5.51-.24.9-.56,1.16-.96.26-.4.38-.9.38-1.51v-26.36c0-.67-.08-1.25-.26-1.73-.17-.48-.49-.88-.96-1.2-.47-.32-1.11-.59-1.93-.81-.81-.22-1.88-.32-3.19-.48-1.12-.14-2.15-.51-3.1-.96-.96-.45-1.78-1.03-2.46-1.75-.68-.72-1.23-1.56-1.63-2.52-.4-.96-.6-2.03-.6-3.21v-12.08c0-1.18.18-2.26.54-3.23.36-.97.86-1.82,1.5-2.54.64-.72,1.41-1.29,2.29-1.73.88-.43,1.87-.74,2.95-.84,1.42-.13,2.58-.25,3.47-.46.88-.21,1.58-.47,2.08-.79.5-.32.84-.73,1.03-1.25.18-.51.28-1.12.28-1.82v-22.53c0-.61-.13-1.12-.38-1.53-.26-.42-.64-.74-1.16-.98-.51-.24-1.18-.4-1.99-.48-.81-.08-1.78-.12-2.89-.12s-2.08.04-2.89.12c-.81.08-1.48.24-1.99.48-.51.24-.9.57-1.16.98-.26.42-.38.93-.38,1.53v4.94c0,.89-.14,1.73-.43,2.52-.29.78-.68,1.45-1.18,2.01-.5.56-1.1,1-1.8,1.32-.7.32-1.45.48-2.25.48h-32.77c-.8,0-1.55-.16-2.25-.48-.7-.32-1.3-.76-1.8-1.32-.5-.56-.89-1.23-1.18-2.01-.29-.78-.43-1.62-.43-2.52v-4.22c0-3.51.32-6.81.96-9.9.64-3.08,1.73-5.9,3.25-8.46,1.53-2.56,3.54-4.83,6.05-6.83,2.51-2,5.63-3.69,9.37-5.08,3.74-1.39,8.15-2.44,13.24-3.16,5.09-.72,10.96-1.08,17.61-1.08s12.55.34,17.63,1.01,9.48,1.67,13.22,3c3.74,1.33,6.86,2.96,9.37,4.89,2.51,1.93,4.53,4.16,6.06,6.69,1.53,2.52,2.61,5.33,3.25,8.41.64,3.08.96,6.43.96,10.04v19.65c0,3.8-.31,7.23-.92,10.28-.61,3.05-1.78,5.73-3.49,8.03-.91,1.28-1.38,2.47-1.39,3.57-.01,1.1.43,2.31,1.35,3.62,1.71,2.4,2.88,5.14,3.51,8.24.63,3.1.94,6.55.94,10.35v23c0,3.61-.32,6.94-.96,9.99-.64,3.05-1.73,5.82-3.25,8.32-1.53,2.49-3.54,4.69-6.06,6.59-2.51,1.9-5.63,3.5-9.37,4.79-3.74,1.29-8.14,2.26-13.22,2.9-5.08.64-10.95.96-17.63.96s-12.52-.37-17.61-1.1c-5.09-.74-9.51-1.82-13.24-3.26-3.74-1.44-6.86-3.17-9.37-5.2-2.51-2.03-4.53-4.34-6.05-6.95-1.53-2.6-2.61-5.46-3.25-8.56-.64-3.1-.96-6.41-.96-9.92v-4.22Z"/>
      <path class="cls-2" d="M286.62,75.41c0-.86-.13-1.56-.38-2.11-.26-.54-.67-.96-1.24-1.25-.57-.29-1.32-.48-2.25-.58-.93-.1-2.06-.14-3.4-.14h-3.17c-.91,0-1.61.27-2.1.81-.49.54-.73,1.33-.73,2.35v78.98c0,1.02.24,1.81.73,2.35.48.54,1.18.81,2.1.81h3.17c1.34,0,2.47-.06,3.4-.17.93-.11,1.67-.31,2.25-.6.57-.29.98-.69,1.24-1.22.26-.53.38-1.22.38-2.08v-77.16ZM279.35,39.22c6.93,0,13.03.34,18.29,1.01s9.81,1.66,13.65,2.97c3.84,1.31,7.02,2.95,9.56,4.91,2.54,1.97,4.57,4.24,6.1,6.83,1.53,2.59,2.6,5.49,3.23,8.7.63,3.21.94,6.73.94,10.57v79.56c0,3.83-.31,7.36-.94,10.57-.63,3.21-1.71,6.11-3.23,8.7-1.53,2.59-3.56,4.86-6.1,6.83-2.54,1.97-5.73,3.6-9.56,4.91-3.84,1.31-8.39,2.3-13.65,2.97s-11.36,1.01-18.29,1.01h-43c-2.42,0-4.28-.72-5.56-2.16-1.28-1.44-1.92-3.51-1.92-6.23V47.61c0-2.75.64-4.83,1.92-6.25,1.28-1.42,3.14-2.13,5.56-2.13h43Z"/>
      <path class="cls-2" d="M368.88,190.12c-5.26-.69-9.81-1.71-13.65-3.07-3.84-1.36-7.02-3.04-9.56-5.03-2.54-2-4.57-4.31-6.1-6.93-1.53-2.62-2.6-5.55-3.23-8.79-.63-3.24-.94-6.78-.94-10.62v-83.39c0-3.83.31-7.37.94-10.62.63-3.24,1.7-6.17,3.23-8.79,1.53-2.62,3.56-4.93,6.1-6.93,2.54-2,5.73-3.67,9.56-5.03,3.84-1.36,8.39-2.38,13.65-3.07,5.26-.69,11.36-1.03,18.29-1.03s13.03.34,18.29,1.03c5.26.69,9.81,1.71,13.65,3.07,3.84,1.36,7.02,3.04,9.56,5.03,2.54,2,4.57,4.31,6.1,6.93,1.53,2.62,2.6,5.55,3.23,8.79.63,3.24.94,6.78.94,10.62v14.47c0,2.62-.61,4.62-1.82,5.99-1.21,1.37-2.99,2.06-5.33,2.06h-31.66c-1.85,0-3.27-.54-4.24-1.63-.97-1.09-1.46-2.65-1.46-4.7v-15c0-.86-.13-1.56-.38-2.11-.26-.54-.67-.96-1.24-1.25s-1.32-.48-2.25-.58c-.93-.1-2.06-.14-3.4-.14s-2.43.05-3.36.14c-.93.1-1.68.29-2.25.58s-.99.7-1.26,1.25c-.27.54-.41,1.25-.41,2.11v81c0,.86.13,1.56.41,2.08.27.53.69.93,1.26,1.22s1.32.49,2.25.6c.93.11,2.05.17,3.36.17s2.47-.06,3.4-.17c.93-.11,1.68-.31,2.25-.6s.98-.69,1.24-1.22c.26-.53.38-1.22.38-2.08v-15c0-2.08.48-3.65,1.46-4.72.97-1.07,2.38-1.61,4.24-1.61h31.66c2.34,0,4.11.68,5.33,2.04,1.21,1.36,1.82,3.36,1.82,6.01v14.47c0,3.83-.31,7.37-.94,10.62-.63,3.24-1.7,6.17-3.23,8.79-1.53,2.62-3.56,4.93-6.1,6.93-2.54,2-5.73,3.67-9.56,5.03-3.84,1.36-8.39,2.38-13.65,3.07-5.26.69-11.36,1.03-18.29,1.03s-13.03-.34-18.29-1.03Z"/>
    </g>
    <g>
      <path class="cls-2" d="M74.02,73.28c0-.73-.12-1.34-.36-1.82-.24-.48-.6-.85-1.07-1.1-.47-.26-1.05-.43-1.73-.53-.68-.1-1.48-.14-2.4-.14h-4.02c-.91,0-1.61.27-2.1.81-.49.54-.73,1.33-.73,2.35v27.22c0,1.02.24,1.81.73,2.35.48.54,1.18.81,2.1.81h4.02c.91,0,1.71-.06,2.4-.17.68-.11,1.26-.29,1.73-.55.47-.26.83-.61,1.07-1.08.24-.46.36-1.06.36-1.8v-26.36ZM68.46,37.57c6.73,0,12.64.32,17.73.96,5.09.64,9.49,1.6,13.2,2.88,3.71,1.28,6.79,2.88,9.24,4.82,2.45,1.93,4.41,4.17,5.88,6.71,1.47,2.54,2.5,5.41,3.1,8.6.6,3.2.9,6.71.9,10.54v28.76c0,3.83-.3,7.35-.9,10.54-.6,3.2-1.63,6.06-3.1,8.6-1.47,2.54-3.43,4.78-5.88,6.71-2.45,1.93-5.53,3.54-9.24,4.82-3.71,1.28-8.11,2.24-13.2,2.88-5.09.64-11,.96-17.73.96h-3.38c-1.11,0-1.97.34-2.57,1.01-.6.67-.9,1.63-.9,2.88v39.49c0,2.72-.64,4.79-1.9,6.23-1.27,1.44-3.13,2.16-5.58,2.16h-29.52c-2.42,0-4.28-.72-5.56-2.16-1.28-1.44-1.93-3.51-1.93-6.23V45.96c0-2.75.64-4.83,1.93-6.25,1.28-1.42,3.14-2.13,5.56-2.13h43.86Z"/>
      <path class="cls-2" d="M121.73,150.3c0-.89.14-1.73.43-2.52.28-.78.68-1.45,1.18-2.01.5-.56,1.1-1,1.8-1.32.7-.32,1.45-.48,2.25-.48h32.77c.8,0,1.55.16,2.25.48.7.32,1.3.76,1.8,1.32.5.56.89,1.23,1.18,2.01.28.78.43,1.62.43,2.52v4.94c0,.61.13,1.11.38,1.51.26.4.64.72,1.16.96.51.24,1.18.41,1.99.5.81.1,1.78.14,2.89.14s2.07-.05,2.89-.14c.81-.1,1.48-.26,1.99-.5.51-.24.9-.56,1.16-.96.26-.4.38-.9.38-1.51v-26.36c0-.67-.08-1.25-.26-1.73-.17-.48-.49-.88-.96-1.2-.47-.32-1.11-.59-1.93-.81-.81-.22-1.88-.32-3.19-.48-1.12-.14-2.15-.51-3.1-.96-.96-.45-1.78-1.03-2.46-1.75-.68-.72-1.23-1.56-1.63-2.52-.4-.96-.6-2.03-.6-3.21v-12.08c0-1.18.18-2.26.54-3.23.36-.97.86-1.82,1.5-2.54.64-.72,1.41-1.29,2.29-1.73.88-.43,1.87-.74,2.95-.84,1.42-.13,2.58-.25,3.47-.46.88-.21,1.58-.47,2.08-.79.5-.32.84-.73,1.03-1.25.18-.51.28-1.12.28-1.82v-22.53c0-.61-.13-1.12-.38-1.53-.26-.42-.64-.74-1.16-.98-.51-.24-1.18-.4-1.99-.48-.81-.08-1.78-.12-2.89-.12s-2.08.04-2.89.12c-.81.08-1.48.24-1.99.48-.51.24-.9.57-1.16.98-.26.42-.38.93-.38,1.53v4.94c0,.89-.14,1.73-.43,2.52-.29.78-.68,1.45-1.18,2.01-.5.56-1.1,1-1.8,1.32-.7.32-1.45.48-2.25.48h-32.77c-.8,0-1.55-.16-2.25-.48-.7-.32-1.3-.76-1.8-1.32-.5-.56-.89-1.23-1.18-2.01-.29-.78-.43-1.62-.43-2.52v-4.22c0-3.51.32-6.81.96-9.9.64-3.08,1.73-5.9,3.25-8.46,1.53-2.56,3.54-4.83,6.05-6.83,2.51-2,5.63-3.69,9.37-5.08,3.74-1.39,8.15-2.44,13.24-3.16,5.09-.72,10.96-1.08,17.61-1.08s12.55.34,17.63,1.01,9.48,1.67,13.22,3c3.74,1.33,6.86,2.96,9.37,4.89,2.51,1.93,4.53,4.16,6.05,6.69,1.53,2.52,2.61,5.33,3.25,8.41.64,3.08.96,6.43.96,10.04v19.65c0,3.8-.31,7.23-.92,10.28-.61,3.05-1.78,5.73-3.49,8.03-.91,1.28-1.38,2.47-1.39,3.57-.01,1.1.43,2.31,1.35,3.62,1.71,2.4,2.88,5.14,3.51,8.24.63,3.1.94,6.55.94,10.35v23c0,3.61-.32,6.94-.96,9.99-.64,3.05-1.73,5.82-3.25,8.32-1.53,2.49-3.54,4.69-6.05,6.59-2.51,1.9-5.63,3.5-9.37,4.79-3.74,1.29-8.14,2.26-13.22,2.9-5.08.64-10.95.96-17.63.96s-12.52-.37-17.61-1.1c-5.09-.74-9.51-1.82-13.24-3.26-3.74-1.44-6.86-3.17-9.37-5.2-2.51-2.03-4.53-4.34-6.05-6.95-1.53-2.6-2.61-5.46-3.25-8.56-.64-3.1-.96-6.41-.96-9.92v-4.22Z"/>
      <path class="cls-2" d="M285.17,73.76c0-.86-.13-1.56-.38-2.11-.26-.54-.67-.96-1.24-1.25-.57-.29-1.32-.48-2.25-.58-.93-.1-2.06-.14-3.4-.14h-3.17c-.91,0-1.61.27-2.1.81-.49.54-.73,1.33-.73,2.35v78.98c0,1.02.24,1.81.73,2.35.48.54,1.18.81,2.1.81h3.17c1.34,0,2.47-.06,3.4-.17.93-.11,1.67-.31,2.25-.6.57-.29.98-.69,1.24-1.22.26-.53.38-1.22.38-2.08v-77.16ZM277.89,37.57c6.93,0,13.03.34,18.29,1.01s9.81,1.66,13.65,2.97c3.84,1.31,7.02,2.95,9.56,4.91,2.54,1.97,4.57,4.24,6.1,6.83,1.53,2.59,2.6,5.49,3.23,8.7.63,3.21.94,6.73.94,10.57v79.56c0,3.83-.31,7.36-.94,10.57-.63,3.21-1.71,6.11-3.23,8.7-1.53,2.59-3.56,4.86-6.1,6.83-2.54,1.97-5.73,3.6-9.56,4.91-3.84,1.31-8.39,2.3-13.65,2.97s-11.36,1.01-18.29,1.01h-43c-2.42,0-4.28-.72-5.56-2.16-1.28-1.44-1.92-3.51-1.92-6.23V45.96c0-2.75.64-4.83,1.92-6.25,1.28-1.42,3.14-2.13,5.56-2.13h43Z"/>
      <path class="cls-2" d="M367.42,188.47c-5.26-.69-9.81-1.71-13.65-3.07-3.84-1.36-7.02-3.04-9.56-5.03-2.54-2-4.57-4.31-6.1-6.93-1.53-2.62-2.6-5.55-3.23-8.79-.63-3.24-.94-6.78-.94-10.62v-83.39c0-3.83.31-7.37.94-10.62.63-3.24,1.7-6.17,3.23-8.79,1.53-2.62,3.56-4.93,6.1-6.93,2.54-2,5.73-3.67,9.56-5.03,3.84-1.36,8.39-2.38,13.65-3.07,5.26-.69,11.36-1.03,18.29-1.03s13.03.34,18.29,1.03c5.26.69,9.81,1.71,13.65,3.07,3.84,1.36,7.02,3.04,9.56,5.03,2.54,2,4.57,4.31,6.1,6.93,1.53,2.62,2.6,5.55,3.23,8.79.63,3.24.94,6.78.94,10.62v14.47c0,2.62-.61,4.62-1.82,5.99-1.21,1.37-2.99,2.06-5.33,2.06h-31.66c-1.85,0-3.27-.54-4.24-1.63-.97-1.09-1.46-2.65-1.46-4.7v-15c0-.86-.13-1.56-.38-2.11-.26-.54-.67-.96-1.24-1.25s-1.32-.48-2.25-.58c-.93-.1-2.06-.14-3.4-.14s-2.43.05-3.36.14c-.93.1-1.68.29-2.25.58s-.99.7-1.26,1.25c-.27.54-.41,1.25-.41,2.11v81c0,.86.13,1.56.41,2.08.27.53.69.93,1.26,1.22s1.32.49,2.25.6c.93.11,2.05.17,3.36.17s2.47-.06,3.4-.17c.93-.11,1.68-.31,2.25-.6s.98-.69,1.24-1.22c.26-.53.38-1.22.38-2.08v-15c0-2.08.48-3.65,1.46-4.72.97-1.07,2.38-1.61,4.24-1.61h31.66c2.34,0,4.11.68,5.33,2.04,1.21,1.36,1.82,3.36,1.82,6.01v14.47c0,3.83-.31,7.37-.94,10.62-.63,3.24-1.7,6.17-3.23,8.79-1.53,2.62-3.56,4.93-6.1,6.93-2.54,2-5.73,3.67-9.56,5.03-3.84,1.36-8.39,2.38-13.65,3.07-5.26.69-11.36,1.03-18.29,1.03s-13.03-.34-18.29-1.03Z"/>
    </g>
    <g>
      <path class="cls-2" d="M72.57,71.63c0-.73-.12-1.34-.36-1.82-.24-.48-.6-.85-1.07-1.1-.47-.26-1.05-.43-1.73-.53-.68-.1-1.48-.14-2.4-.14h-4.02c-.91,0-1.61.27-2.1.81-.49.54-.73,1.33-.73,2.35v27.22c0,1.02.24,1.81.73,2.35.48.54,1.18.81,2.1.81h4.02c.91,0,1.71-.06,2.4-.17.68-.11,1.26-.29,1.73-.55.47-.26.83-.61,1.07-1.08.24-.46.36-1.06.36-1.8v-26.36ZM67.01,35.92c6.73,0,12.64.32,17.73.96,5.09.64,9.49,1.6,13.2,2.88,3.71,1.28,6.79,2.88,9.24,4.82,2.45,1.93,4.41,4.17,5.88,6.71,1.47,2.54,2.5,5.41,3.1,8.6.6,3.2.9,6.71.9,10.54v28.76c0,3.83-.3,7.35-.9,10.54-.6,3.2-1.63,6.06-3.1,8.6-1.47,2.54-3.43,4.78-5.88,6.71-2.45,1.93-5.53,3.54-9.24,4.82-3.71,1.28-8.11,2.24-13.2,2.88-5.09.64-11,.96-17.73.96h-3.38c-1.11,0-1.97.34-2.57,1.01-.6.67-.9,1.63-.9,2.88v39.49c0,2.72-.64,4.79-1.9,6.23-1.27,1.44-3.13,2.16-5.58,2.16h-29.52c-2.42,0-4.28-.72-5.56-2.16-1.28-1.44-1.93-3.51-1.93-6.23V44.31c0-2.75.64-4.83,1.93-6.25,1.28-1.42,3.14-2.13,5.56-2.13h43.86Z"/>
      <path class="cls-2" d="M120.27,148.65c0-.89.14-1.73.43-2.52.28-.78.68-1.45,1.18-2.01.5-.56,1.1-1,1.8-1.32.7-.32,1.45-.48,2.25-.48h32.77c.8,0,1.55.16,2.25.48.7.32,1.3.76,1.8,1.32.5.56.89,1.23,1.18,2.01.28.78.43,1.62.43,2.52v4.94c0,.61.13,1.11.38,1.51.26.4.64.72,1.16.96.51.24,1.18.41,1.99.5.81.1,1.78.14,2.89.14s2.07-.05,2.89-.14c.81-.1,1.48-.26,1.99-.5.51-.24.9-.56,1.16-.96.26-.4.38-.9.38-1.51v-26.36c0-.67-.08-1.25-.26-1.73-.17-.48-.49-.88-.96-1.2-.47-.32-1.11-.59-1.93-.81-.81-.22-1.88-.32-3.19-.48-1.12-.14-2.15-.51-3.1-.96-.96-.45-1.78-1.03-2.46-1.75-.68-.72-1.23-1.56-1.63-2.52-.4-.96-.6-2.03-.6-3.21v-12.08c0-1.18.18-2.26.54-3.23.36-.97.86-1.82,1.5-2.54.64-.72,1.41-1.29,2.29-1.73.88-.43,1.87-.74,2.95-.84,1.42-.13,2.58-.25,3.47-.46.88-.21,1.58-.47,2.08-.79.5-.32.84-.73,1.03-1.25.18-.51.28-1.12.28-1.82v-22.53c0-.61-.13-1.12-.38-1.53-.26-.42-.64-.74-1.16-.98-.51-.24-1.18-.4-1.99-.48-.81-.08-1.78-.12-2.89-.12s-2.08.04-2.89.12c-.81.08-1.48.24-1.99.48-.51.24-.9.57-1.16.98-.26.42-.38.93-.38,1.53v4.94c0,.89-.14,1.73-.43,2.52-.29.78-.68,1.45-1.18,2.01-.5.56-1.1,1-1.8,1.32-.7.32-1.45.48-2.25.48h-32.77c-.8,0-1.55-.16-2.25-.48-.7-.32-1.3-.76-1.8-1.32-.5-.56-.89-1.23-1.18-2.01-.29-.78-.43-1.62-.43-2.52v-4.22c0-3.51.32-6.81.96-9.9.64-3.08,1.73-5.9,3.25-8.46,1.53-2.56,3.54-4.83,6.05-6.83,2.51-2,5.63-3.69,9.37-5.08,3.74-1.39,8.15-2.44,13.24-3.16,5.09-.72,10.96-1.08,17.61-1.08s12.55.34,17.63,1.01,9.48,1.67,13.22,3c3.74,1.33,6.86,2.96,9.37,4.89,2.51,1.93,4.53,4.16,6.05,6.69,1.53,2.52,2.61,5.33,3.25,8.41.64,3.08.96,6.43.96,10.04v19.65c0,3.8-.31,7.23-.92,10.28-.61,3.05-1.78,5.73-3.49,8.03-.91,1.28-1.38,2.47-1.39,3.57-.01,1.1.43,2.31,1.35,3.62,1.71,2.4,2.88,5.14,3.51,8.24.63,3.1.94,6.55.94,10.35v23c0,3.61-.32,6.94-.96,9.99-.64,3.05-1.73,5.82-3.25,8.32-1.53,2.49-3.54,4.69-6.05,6.59-2.51,1.9-5.63,3.5-9.37,4.79-3.74,1.29-8.14,2.26-13.22,2.9-5.08.64-10.95.96-17.63.96s-12.52-.37-17.61-1.1c-5.09-.74-9.51-1.82-13.24-3.26-3.74-1.44-6.86-3.17-9.37-5.2-2.51-2.03-4.53-4.34-6.05-6.95-1.53-2.6-2.61-5.46-3.25-8.56-.64-3.1-.96-6.41-.96-9.92v-4.22Z"/>
      <path class="cls-2" d="M283.71,72.11c0-.86-.13-1.56-.38-2.11-.26-.54-.67-.96-1.24-1.25-.57-.29-1.32-.48-2.25-.58-.93-.1-2.06-.14-3.4-.14h-3.17c-.91,0-1.61.27-2.1.81-.49.54-.73,1.33-.73,2.35v78.98c0,1.02.24,1.81.73,2.35.48.54,1.18.81,2.1.81h3.17c1.34,0,2.47-.06,3.4-.17.93-.11,1.67-.31,2.25-.6.57-.29.98-.69,1.24-1.22.26-.53.38-1.22.38-2.08v-77.16ZM276.44,35.92c6.93,0,13.03.34,18.29,1.01s9.81,1.66,13.65,2.97c3.84,1.31,7.02,2.95,9.56,4.91,2.54,1.97,4.57,4.24,6.1,6.83,1.53,2.59,2.6,5.49,3.23,8.7.63,3.21.94,6.73.94,10.57v79.56c0,3.83-.31,7.36-.94,10.57-.63,3.21-1.71,6.11-3.23,8.7-1.53,2.59-3.56,4.86-6.1,6.83-2.54,1.97-5.73,3.6-9.56,4.91-3.84,1.31-8.39,2.3-13.65,2.97s-11.36,1.01-18.29,1.01h-43c-2.42,0-4.28-.72-5.56-2.16-1.28-1.44-1.92-3.51-1.92-6.23V44.31c0-2.75.64-4.83,1.92-6.25,1.28-1.42,3.14-2.13,5.56-2.13h43Z"/>
      <path class="cls-2" d="M365.97,186.82c-5.26-.69-9.81-1.71-13.65-3.07-3.84-1.36-7.02-3.04-9.56-5.03-2.54-2-4.57-4.31-6.1-6.93-1.53-2.62-2.6-5.55-3.23-8.79-.63-3.24-.94-6.78-.94-10.62v-83.39c0-3.83.31-7.37.94-10.62.63-3.24,1.7-6.17,3.23-8.79,1.53-2.62,3.56-4.93,6.1-6.93,2.54-2,5.73-3.67,9.56-5.03,3.84-1.36,8.39-2.38,13.65-3.07,5.26-.69,11.36-1.03,18.29-1.03s13.03.34,18.29,1.03c5.26.69,9.81,1.71,13.65,3.07,3.84,1.36,7.02,3.04,9.56,5.03,2.54,2,4.57,4.31,6.1,6.93,1.53,2.62,2.6,5.55,3.23,8.79.63,3.24.94,6.78.94,10.62v14.47c0,2.62-.61,4.62-1.82,5.99-1.21,1.37-2.99,2.06-5.33,2.06h-31.66c-1.85,0-3.27-.54-4.24-1.63-.97-1.09-1.46-2.65-1.46-4.7v-15c0-.86-.13-1.56-.38-2.11-.26-.54-.67-.96-1.24-1.25s-1.32-.48-2.25-.58c-.93-.1-2.06-.14-3.4-.14s-2.43.05-3.36.14c-.93.1-1.68.29-2.25.58s-.99.7-1.26,1.25c-.27.54-.41,1.25-.41,2.11v81c0,.86.13,1.56.41,2.08.27.53.69.93,1.26,1.22s1.32.49,2.25.6c.93.11,2.05.17,3.36.17s2.47-.06,3.4-.17c.93-.11,1.68-.31,2.25-.6s.98-.69,1.24-1.22c.26-.53.38-1.22.38-2.08v-15c0-2.08.48-3.65,1.46-4.72.97-1.07,2.38-1.61,4.24-1.61h31.66c2.34,0,4.11.68,5.33,2.04,1.21,1.36,1.82,3.36,1.82,6.01v14.47c0,3.83-.31,7.37-.94,10.62-.63,3.24-1.7,6.17-3.23,8.79-1.53,2.62-3.56,4.93-6.1,6.93-2.54,2-5.73,3.67-9.56,5.03-3.84,1.36-8.39,2.38-13.65,3.07-5.26.69-11.36,1.03-18.29,1.03s-13.03-.34-18.29-1.03Z"/>
    </g>
    <g>
      <path class="cls-2" d="M71.11,69.98c0-.73-.12-1.34-.36-1.82-.24-.48-.6-.85-1.07-1.1-.47-.26-1.05-.43-1.73-.53-.68-.1-1.48-.14-2.4-.14h-4.02c-.91,0-1.61.27-2.1.81-.49.54-.73,1.33-.73,2.35v27.22c0,1.02.24,1.81.73,2.35.48.54,1.18.81,2.1.81h4.02c.91,0,1.71-.06,2.4-.17.68-.11,1.26-.29,1.73-.55.47-.26.83-.61,1.07-1.08.24-.46.36-1.06.36-1.8v-26.36ZM65.55,34.28c6.73,0,12.64.32,17.73.96,5.09.64,9.49,1.6,13.2,2.88,3.71,1.28,6.79,2.88,9.24,4.82,2.45,1.93,4.41,4.17,5.88,6.71,1.47,2.54,2.5,5.41,3.1,8.6.6,3.2.9,6.71.9,10.54v28.76c0,3.83-.3,7.35-.9,10.54-.6,3.2-1.63,6.06-3.1,8.6-1.47,2.54-3.43,4.78-5.88,6.71-2.45,1.93-5.53,3.54-9.24,4.82-3.71,1.28-8.11,2.24-13.2,2.88-5.09.64-11,.96-17.73.96h-3.38c-1.11,0-1.97.34-2.57,1.01-.6.67-.9,1.63-.9,2.88v39.49c0,2.72-.64,4.79-1.9,6.23-1.27,1.44-3.13,2.16-5.58,2.16h-29.52c-2.42,0-4.28-.72-5.56-2.16-1.28-1.44-1.93-3.51-1.93-6.23V42.66c0-2.75.64-4.83,1.93-6.25,1.28-1.42,3.14-2.13,5.56-2.13h43.86Z"/>
      <path class="cls-2" d="M118.82,147c0-.89.14-1.73.43-2.52.28-.78.68-1.45,1.18-2.01.5-.56,1.1-1,1.8-1.32.7-.32,1.45-.48,2.25-.48h32.77c.8,0,1.55.16,2.25.48.7.32,1.3.76,1.8,1.32.5.56.89,1.23,1.18,2.01.28.78.43,1.62.43,2.52v4.94c0,.61.13,1.11.38,1.51.26.4.64.72,1.16.96.51.24,1.18.41,1.99.5.81.1,1.78.14,2.89.14s2.07-.05,2.89-.14c.81-.1,1.48-.26,1.99-.5.51-.24.9-.56,1.16-.96.26-.4.38-.9.38-1.51v-26.36c0-.67-.08-1.25-.26-1.73-.17-.48-.49-.88-.96-1.2-.47-.32-1.11-.59-1.93-.81-.81-.22-1.88-.32-3.19-.48-1.12-.14-2.15-.51-3.1-.96-.96-.45-1.78-1.03-2.46-1.75-.68-.72-1.23-1.56-1.63-2.52-.4-.96-.6-2.03-.6-3.21v-12.08c0-1.18.18-2.26.54-3.23.36-.97.86-1.82,1.5-2.54.64-.72,1.41-1.29,2.29-1.73.88-.43,1.87-.74,2.95-.84,1.42-.13,2.58-.25,3.47-.46.88-.21,1.58-.47,2.08-.79.5-.32.84-.73,1.03-1.25.18-.51.28-1.12.28-1.82v-22.53c0-.61-.13-1.12-.38-1.53-.26-.42-.64-.74-1.16-.98-.51-.24-1.18-.4-1.99-.48-.81-.08-1.78-.12-2.89-.12s-2.08.04-2.89.12c-.81.08-1.48.24-1.99.48-.51.24-.9.57-1.16.98-.26.42-.38.93-.38,1.53v4.94c0,.89-.14,1.73-.43,2.52-.29.78-.68,1.45-1.18,2.01-.5.56-1.1,1-1.8,1.32-.7.32-1.45.48-2.25.48h-32.77c-.8,0-1.55-.16-2.25-.48-.7-.32-1.3-.76-1.8-1.32-.5-.56-.89-1.23-1.18-2.01-.29-.78-.43-1.62-.43-2.52v-4.22c0-3.51.32-6.81.96-9.9.64-3.08,1.73-5.9,3.25-8.46,1.53-2.56,3.54-4.83,6.05-6.83,2.51-2,5.63-3.69,9.37-5.08,3.74-1.39,8.15-2.44,13.24-3.16,5.09-.72,10.96-1.08,17.61-1.08s12.55.34,17.63,1.01,9.48,1.67,13.22,3c3.74,1.33,6.86,2.96,9.37,4.89,2.51,1.93,4.53,4.16,6.05,6.69,1.53,2.52,2.61,5.33,3.25,8.41.64,3.08.96,6.43.96,10.04v19.65c0,3.8-.31,7.23-.92,10.28-.61,3.05-1.78,5.73-3.49,8.03-.91,1.28-1.38,2.47-1.39,3.57-.01,1.1.43,2.31,1.35,3.62,1.71,2.4,2.88,5.14,3.51,8.24.63,3.1.94,6.55.94,10.35v23c0,3.61-.32,6.94-.96,9.99-.64,3.05-1.73,5.82-3.25,8.32-1.53,2.49-3.54,4.69-6.05,6.59-2.51,1.9-5.63,3.5-9.37,4.79-3.74,1.29-8.14,2.26-13.22,2.9-5.08.64-10.95.96-17.63.96s-12.52-.37-17.61-1.1c-5.09-.74-9.51-1.82-13.24-3.26-3.74-1.44-6.86-3.17-9.37-5.2-2.51-2.03-4.53-4.34-6.05-6.95-1.53-2.6-2.61-5.46-3.25-8.56-.64-3.1-.96-6.41-.96-9.92v-4.22Z"/>
      <path class="cls-2" d="M282.26,70.46c0-.86-.13-1.56-.38-2.11-.26-.54-.67-.96-1.24-1.25-.57-.29-1.32-.48-2.25-.58-.93-.1-2.06-.14-3.4-.14h-3.17c-.91,0-1.61.27-2.1.81-.49.54-.73,1.33-.73,2.35v78.98c0,1.02.24,1.81.73,2.35.48.54,1.18.81,2.1.81h3.17c1.34,0,2.47-.06,3.4-.17.93-.11,1.67-.31,2.25-.6.57-.29.98-.69,1.24-1.22.26-.53.38-1.22.38-2.08v-77.16ZM274.98,34.28c6.93,0,13.03.34,18.29,1.01s9.81,1.66,13.65,2.97c3.84,1.31,7.02,2.95,9.56,4.91,2.54,1.97,4.57,4.24,6.1,6.83,1.53,2.59,2.6,5.49,3.23,8.7.63,3.21.94,6.73.94,10.57v79.56c0,3.83-.31,7.36-.94,10.57-.63,3.21-1.71,6.11-3.23,8.7-1.53,2.59-3.56,4.86-6.1,6.83-2.54,1.97-5.73,3.6-9.56,4.91-3.84,1.31-8.39,2.3-13.65,2.97s-11.36,1.01-18.29,1.01h-43c-2.42,0-4.28-.72-5.56-2.16-1.28-1.44-1.92-3.51-1.92-6.23V42.66c0-2.75.64-4.83,1.92-6.25,1.28-1.42,3.14-2.13,5.56-2.13h43Z"/>
      <path class="cls-2" d="M364.51,185.17c-5.26-.69-9.81-1.71-13.65-3.07-3.84-1.36-7.02-3.04-9.56-5.03-2.54-2-4.57-4.31-6.1-6.93-1.53-2.62-2.6-5.55-3.23-8.79-.63-3.24-.94-6.78-.94-10.62v-83.39c0-3.83.31-7.37.94-10.62.63-3.24,1.7-6.17,3.23-8.79,1.53-2.62,3.56-4.93,6.1-6.93,2.54-2,5.73-3.67,9.56-5.03,3.84-1.36,8.39-2.38,13.65-3.07,5.26-.69,11.36-1.03,18.29-1.03s13.03.34,18.29,1.03c5.26.69,9.81,1.71,13.65,3.07,3.84,1.36,7.02,3.04,9.56,5.03,2.54,2,4.57,4.31,6.1,6.93,1.53,2.62,2.6,5.55,3.23,8.79.63,3.24.94,6.78.94,10.62v14.47c0,2.62-.61,4.62-1.82,5.99-1.21,1.37-2.99,2.06-5.33,2.06h-31.66c-1.85,0-3.27-.54-4.24-1.63-.97-1.09-1.46-2.65-1.46-4.7v-15c0-.86-.13-1.56-.38-2.11-.26-.54-.67-.96-1.24-1.25s-1.32-.48-2.25-.58c-.93-.1-2.06-.14-3.4-.14s-2.43.05-3.36.14c-.93.1-1.68.29-2.25.58s-.99.7-1.26,1.25c-.27.54-.41,1.25-.41,2.11v81c0,.86.13,1.56.41,2.08.27.53.69.93,1.26,1.22s1.32.49,2.25.6c.93.11,2.05.17,3.36.17s2.47-.06,3.4-.17c.93-.11,1.68-.31,2.25-.6s.98-.69,1.24-1.22c.26-.53.38-1.22.38-2.08v-15c0-2.08.48-3.65,1.46-4.72.97-1.07,2.38-1.61,4.24-1.61h31.66c2.34,0,4.11.68,5.33,2.04,1.21,1.36,1.82,3.36,1.82,6.01v14.47c0,3.83-.31,7.37-.94,10.62-.63,3.24-1.7,6.17-3.23,8.79-1.53,2.62-3.56,4.93-6.1,6.93-2.54,2-5.73,3.67-9.56,5.03-3.84,1.36-8.39,2.38-13.65,3.07-5.26.69-11.36,1.03-18.29,1.03s-13.03-.34-18.29-1.03Z"/>
    </g>
    <g>
      <path class="cls-2" d="M69.66,68.33c0-.73-.12-1.34-.36-1.82-.24-.48-.6-.85-1.07-1.1-.47-.26-1.05-.43-1.73-.53-.68-.1-1.48-.14-2.4-.14h-4.02c-.91,0-1.61.27-2.1.81-.49.54-.73,1.33-.73,2.35v27.22c0,1.02.24,1.81.73,2.35.48.54,1.18.81,2.1.81h4.02c.91,0,1.71-.06,2.4-.17.68-.11,1.26-.29,1.73-.55.47-.26.83-.61,1.07-1.08.24-.46.36-1.06.36-1.8v-26.36ZM64.1,32.63c6.73,0,12.64.32,17.73.96,5.09.64,9.49,1.6,13.2,2.88,3.71,1.28,6.79,2.88,9.24,4.82,2.45,1.93,4.41,4.17,5.88,6.71,1.47,2.54,2.5,5.41,3.1,8.6.6,3.2.9,6.71.9,10.54v28.76c0,3.83-.3,7.35-.9,10.54-.6,3.2-1.63,6.06-3.1,8.6-1.47,2.54-3.43,4.78-5.88,6.71-2.45,1.93-5.53,3.54-9.24,4.82-3.71,1.28-8.11,2.24-13.2,2.88-5.09.64-11,.96-17.73.96h-3.38c-1.11,0-1.97.34-2.57,1.01-.6.67-.9,1.63-.9,2.88v39.49c0,2.72-.64,4.79-1.9,6.23-1.27,1.44-3.13,2.16-5.58,2.16h-29.52c-2.42,0-4.28-.72-5.56-2.16-1.28-1.44-1.93-3.51-1.93-6.23V41.01c0-2.75.64-4.83,1.93-6.25,1.28-1.42,3.14-2.13,5.56-2.13h43.86Z"/>
      <path class="cls-2" d="M117.36,145.35c0-.89.14-1.73.43-2.52.28-.78.68-1.45,1.18-2.01.5-.56,1.1-1,1.8-1.32.7-.32,1.45-.48,2.25-.48h32.77c.8,0,1.55.16,2.25.48.7.32,1.3.76,1.8,1.32.5.56.89,1.23,1.18,2.01.28.78.43,1.62.43,2.52v4.94c0,.61.13,1.11.38,1.51.26.4.64.72,1.16.96.51.24,1.18.41,1.99.5.81.1,1.78.14,2.89.14s2.07-.05,2.89-.14c.81-.1,1.48-.26,1.99-.5.51-.24.9-.56,1.16-.96.26-.4.38-.9.38-1.51v-26.36c0-.67-.08-1.25-.26-1.73-.17-.48-.49-.88-.96-1.2-.47-.32-1.11-.59-1.93-.81-.81-.22-1.88-.32-3.19-.48-1.12-.14-2.15-.51-3.1-.96-.96-.45-1.78-1.03-2.46-1.75-.68-.72-1.23-1.56-1.63-2.52-.4-.96-.6-2.03-.6-3.21v-12.08c0-1.18.18-2.26.54-3.23.36-.97.86-1.82,1.5-2.54.64-.72,1.41-1.29,2.29-1.73.88-.43,1.87-.74,2.95-.84,1.42-.13,2.58-.25,3.47-.46.88-.21,1.58-.47,2.08-.79.5-.32.84-.73,1.03-1.25.18-.51.28-1.12.28-1.82v-22.53c0-.61-.13-1.12-.38-1.53-.26-.42-.64-.74-1.16-.98-.51-.24-1.18-.4-1.99-.48-.81-.08-1.78-.12-2.89-.12s-2.08.04-2.89.12c-.81.08-1.48.24-1.99.48-.51.24-.9.57-1.16.98-.26.42-.38.93-.38,1.53v4.94c0,.89-.14,1.73-.43,2.52-.29.78-.68,1.45-1.18,2.01-.5.56-1.1,1-1.8,1.32-.7.32-1.45.48-2.25.48h-32.77c-.8,0-1.55-.16-2.25-.48-.7-.32-1.3-.76-1.8-1.32-.5-.56-.89-1.23-1.18-2.01-.29-.78-.43-1.62-.43-2.52v-4.22c0-3.51.32-6.81.96-9.9.64-3.08,1.73-5.9,3.25-8.46,1.53-2.56,3.54-4.83,6.05-6.83,2.51-2,5.63-3.69,9.37-5.08,3.74-1.39,8.15-2.44,13.24-3.16,5.09-.72,10.96-1.08,17.61-1.08s12.55.34,17.63,1.01,9.48,1.67,13.22,3c3.74,1.33,6.86,2.96,9.37,4.89,2.51,1.93,4.53,4.16,6.05,6.69,1.53,2.52,2.61,5.33,3.25,8.41.64,3.08.96,6.43.96,10.04v19.65c0,3.8-.31,7.23-.92,10.28-.61,3.05-1.78,5.73-3.49,8.03-.91,1.28-1.38,2.47-1.39,3.57-.01,1.1.43,2.31,1.35,3.62,1.71,2.4,2.88,5.14,3.51,8.24.63,3.1.94,6.55.94,10.35v23c0,3.61-.32,6.94-.96,9.99-.64,3.05-1.73,5.82-3.25,8.32-1.53,2.49-3.54,4.69-6.05,6.59-2.51,1.9-5.63,3.5-9.37,4.79-3.74,1.29-8.14,2.26-13.22,2.9-5.08.64-10.95.96-17.63.96s-12.52-.37-17.61-1.1c-5.09-.74-9.51-1.82-13.24-3.26-3.74-1.44-6.86-3.17-9.37-5.2-2.51-2.03-4.53-4.34-6.05-6.95-1.53-2.6-2.61-5.46-3.25-8.56-.64-3.1-.96-6.41-.96-9.92v-4.22Z"/>
      <path class="cls-2" d="M280.8,68.81c0-.86-.13-1.56-.38-2.11-.26-.54-.67-.96-1.24-1.25-.57-.29-1.32-.48-2.25-.58-.93-.1-2.06-.14-3.4-.14h-3.17c-.91,0-1.61.27-2.1.81-.49.54-.73,1.33-.73,2.35v78.98c0,1.02.24,1.81.73,2.35.48.54,1.18.81,2.1.81h3.17c1.34,0,2.47-.06,3.4-.17.93-.11,1.67-.31,2.25-.6.57-.29.98-.69,1.24-1.22.26-.53.38-1.22.38-2.08v-77.16ZM273.53,32.63c6.93,0,13.03.34,18.29,1.01s9.81,1.66,13.65,2.97c3.84,1.31,7.02,2.95,9.56,4.91,2.54,1.97,4.57,4.24,6.1,6.83,1.53,2.59,2.6,5.49,3.23,8.7.63,3.21.94,6.73.94,10.57v79.56c0,3.83-.31,7.36-.94,10.57-.63,3.21-1.71,6.11-3.23,8.7-1.53,2.59-3.56,4.86-6.1,6.83-2.54,1.97-5.73,3.6-9.56,4.91-3.84,1.31-8.39,2.3-13.65,2.97s-11.36,1.01-18.29,1.01h-43c-2.42,0-4.28-.72-5.56-2.16-1.28-1.44-1.92-3.51-1.92-6.23V41.01c0-2.75.64-4.83,1.92-6.25,1.28-1.42,3.14-2.13,5.56-2.13h43Z"/>
      <path class="cls-2" d="M363.06,183.52c-5.26-.69-9.81-1.71-13.65-3.07-3.84-1.36-7.02-3.04-9.56-5.03-2.54-2-4.57-4.31-6.1-6.93-1.53-2.62-2.6-5.55-3.23-8.79-.63-3.24-.94-6.78-.94-10.62v-83.39c0-3.83.31-7.37.94-10.62.63-3.24,1.7-6.17,3.23-8.79,1.53-2.62,3.56-4.93,6.1-6.93,2.54-2,5.73-3.67,9.56-5.03,3.84-1.36,8.39-2.38,13.65-3.07,5.26-.69,11.36-1.03,18.29-1.03s13.03.34,18.29,1.03c5.26.69,9.81,1.71,13.65,3.07,3.84,1.36,7.02,3.04,9.56,5.03,2.54,2,4.57,4.31,6.1,6.93,1.53,2.62,2.6,5.55,3.23,8.79.63,3.24.94,6.78.94,10.62v14.47c0,2.62-.61,4.62-1.82,5.99-1.21,1.37-2.99,2.06-5.33,2.06h-31.66c-1.85,0-3.27-.54-4.24-1.63-.97-1.09-1.46-2.65-1.46-4.7v-15c0-.86-.13-1.56-.38-2.11-.26-.54-.67-.96-1.24-1.25s-1.32-.48-2.25-.58c-.93-.1-2.06-.14-3.4-.14s-2.43.05-3.36.14c-.93.1-1.68.29-2.25.58s-.99.7-1.26,1.25c-.27.54-.41,1.25-.41,2.11v81c0,.86.13,1.56.41,2.08.27.53.69.93,1.26,1.22s1.32.49,2.25.6c.93.11,2.05.17,3.36.17s2.47-.06,3.4-.17c.93-.11,1.68-.31,2.25-.6s.98-.69,1.24-1.22c.26-.53.38-1.22.38-2.08v-15c0-2.08.48-3.65,1.46-4.72.97-1.07,2.38-1.61,4.24-1.61h31.66c2.34,0,4.11.68,5.33,2.04,1.21,1.36,1.82,3.36,1.82,6.01v14.47c0,3.83-.31,7.37-.94,10.62-.63,3.24-1.7,6.17-3.23,8.79-1.53,2.62-3.56,4.93-6.1,6.93-2.54,2-5.73,3.67-9.56,5.03-3.84,1.36-8.39,2.38-13.65,3.07-5.26.69-11.36,1.03-18.29,1.03s-13.03-.34-18.29-1.03Z"/>
    </g>
    <g>
      <path class="cls-2" d="M68.2,66.68c0-.73-.12-1.34-.36-1.82-.24-.48-.6-.85-1.07-1.1-.47-.26-1.05-.43-1.73-.53-.68-.1-1.48-.14-2.4-.14h-4.02c-.91,0-1.61.27-2.1.81-.49.54-.73,1.33-.73,2.35v27.22c0,1.02.24,1.81.73,2.35.48.54,1.18.81,2.1.81h4.02c.91,0,1.71-.06,2.4-.17.68-.11,1.26-.29,1.73-.55.47-.26.83-.61,1.07-1.08.24-.46.36-1.06.36-1.8v-26.36ZM62.64,30.98c6.73,0,12.64.32,17.73.96,5.09.64,9.49,1.6,13.2,2.88,3.71,1.28,6.79,2.88,9.24,4.82,2.45,1.93,4.41,4.17,5.88,6.71,1.47,2.54,2.5,5.41,3.1,8.6.6,3.2.9,6.71.9,10.54v28.76c0,3.83-.3,7.35-.9,10.54-.6,3.2-1.63,6.06-3.1,8.6-1.47,2.54-3.43,4.78-5.88,6.71-2.45,1.93-5.53,3.54-9.24,4.82-3.71,1.28-8.11,2.24-13.2,2.88-5.09.64-11,.96-17.73.96h-3.38c-1.11,0-1.97.34-2.57,1.01-.6.67-.9,1.63-.9,2.88v39.49c0,2.72-.64,4.79-1.9,6.23-1.27,1.44-3.13,2.16-5.58,2.16h-29.52c-2.42,0-4.28-.72-5.56-2.16-1.28-1.44-1.93-3.51-1.93-6.23V39.37c0-2.75.64-4.83,1.93-6.25,1.28-1.42,3.14-2.13,5.56-2.13h43.86Z"/>
      <path class="cls-2" d="M115.91,143.7c0-.89.14-1.73.43-2.52.28-.78.68-1.45,1.18-2.01.5-.56,1.1-1,1.8-1.32.7-.32,1.45-.48,2.25-.48h32.77c.8,0,1.55.16,2.25.48.7.32,1.3.76,1.8,1.32.5.56.89,1.23,1.18,2.01.28.78.43,1.62.43,2.52v4.94c0,.61.13,1.11.38,1.51.26.4.64.72,1.16.96.51.24,1.18.41,1.99.5.81.1,1.78.14,2.89.14s2.07-.05,2.89-.14c.81-.1,1.48-.26,1.99-.5.51-.24.9-.56,1.16-.96.26-.4.38-.9.38-1.51v-26.36c0-.67-.08-1.25-.26-1.73-.17-.48-.49-.88-.96-1.2-.47-.32-1.11-.59-1.93-.81-.81-.22-1.88-.32-3.19-.48-1.12-.14-2.15-.51-3.1-.96-.96-.45-1.78-1.03-2.46-1.75-.68-.72-1.23-1.56-1.63-2.52-.4-.96-.6-2.03-.6-3.21v-12.08c0-1.18.18-2.26.54-3.23.36-.97.86-1.82,1.5-2.54.64-.72,1.41-1.29,2.29-1.73.88-.43,1.87-.74,2.95-.84,1.42-.13,2.58-.25,3.47-.46.88-.21,1.58-.47,2.08-.79.5-.32.84-.73,1.03-1.25.18-.51.28-1.12.28-1.82v-22.53c0-.61-.13-1.12-.38-1.53-.26-.42-.64-.74-1.16-.98-.51-.24-1.18-.4-1.99-.48-.81-.08-1.78-.12-2.89-.12s-2.08.04-2.89.12c-.81.08-1.48.24-1.99.48-.51.24-.9.57-1.16.98-.26.42-.38.93-.38,1.53v4.94c0,.89-.14,1.73-.43,2.52-.29.78-.68,1.45-1.18,2.01-.5.56-1.1,1-1.8,1.32-.7.32-1.45.48-2.25.48h-32.77c-.8,0-1.55-.16-2.25-.48-.7-.32-1.3-.76-1.8-1.32-.5-.56-.89-1.23-1.18-2.01-.29-.78-.43-1.62-.43-2.52v-4.22c0-3.51.32-6.81.96-9.9.64-3.08,1.73-5.9,3.25-8.46,1.53-2.56,3.54-4.83,6.05-6.83,2.51-2,5.63-3.69,9.37-5.08,3.74-1.39,8.15-2.44,13.24-3.16,5.09-.72,10.96-1.08,17.61-1.08s12.55.34,17.63,1.01,9.48,1.67,13.22,3c3.74,1.33,6.86,2.96,9.37,4.89,2.51,1.93,4.53,4.16,6.05,6.69,1.53,2.52,2.61,5.33,3.25,8.41.64,3.08.96,6.43.96,10.04v19.65c0,3.8-.31,7.23-.92,10.28-.61,3.05-1.78,5.73-3.49,8.03-.91,1.28-1.38,2.47-1.39,3.57-.01,1.1.43,2.31,1.35,3.62,1.71,2.4,2.88,5.14,3.51,8.24.63,3.1.94,6.55.94,10.35v23c0,3.61-.32,6.94-.96,9.99-.64,3.05-1.73,5.82-3.25,8.32-1.53,2.49-3.54,4.69-6.05,6.59-2.51,1.9-5.63,3.5-9.37,4.79-3.74,1.29-8.14,2.26-13.22,2.9-5.08.64-10.95.96-17.63.96s-12.52-.37-17.61-1.1c-5.09-.74-9.51-1.82-13.24-3.26-3.74-1.44-6.86-3.17-9.37-5.2-2.51-2.03-4.53-4.34-6.05-6.95-1.53-2.6-2.61-5.46-3.25-8.56-.64-3.1-.96-6.41-.96-9.92v-4.22Z"/>
      <path class="cls-2" d="M279.35,67.16c0-.86-.13-1.56-.38-2.11-.26-.54-.67-.96-1.24-1.25-.57-.29-1.32-.48-2.25-.58-.93-.1-2.06-.14-3.4-.14h-3.17c-.91,0-1.61.27-2.1.81-.49.54-.73,1.33-.73,2.35v78.98c0,1.02.24,1.81.73,2.35.48.54,1.18.81,2.1.81h3.17c1.34,0,2.47-.06,3.4-.17.93-.11,1.67-.31,2.25-.6.57-.29.98-.69,1.24-1.22.26-.53.38-1.22.38-2.08v-77.16ZM272.07,30.98c6.93,0,13.03.34,18.29,1.01s9.81,1.66,13.65,2.97c3.84,1.31,7.02,2.95,9.56,4.91,2.54,1.97,4.57,4.24,6.1,6.83,1.53,2.59,2.6,5.49,3.23,8.7.63,3.21.94,6.73.94,10.57v79.56c0,3.83-.31,7.36-.94,10.57-.63,3.21-1.71,6.11-3.23,8.7-1.53,2.59-3.56,4.86-6.1,6.83-2.54,1.97-5.73,3.6-9.56,4.91-3.84,1.31-8.39,2.3-13.65,2.97s-11.36,1.01-18.29,1.01h-43c-2.42,0-4.28-.72-5.56-2.16-1.28-1.44-1.92-3.51-1.92-6.23V39.37c0-2.75.64-4.83,1.92-6.25,1.28-1.42,3.14-2.13,5.56-2.13h43Z"/>
      <path class="cls-2" d="M361.6,181.88c-5.26-.69-9.81-1.71-13.65-3.07-3.84-1.36-7.02-3.04-9.56-5.03-2.54-2-4.57-4.31-6.1-6.93-1.53-2.62-2.6-5.55-3.23-8.79-.63-3.24-.94-6.78-.94-10.62v-83.39c0-3.83.31-7.37.94-10.62.63-3.24,1.7-6.17,3.23-8.79,1.53-2.62,3.56-4.93,6.1-6.93,2.54-2,5.73-3.67,9.56-5.03,3.84-1.36,8.39-2.38,13.65-3.07,5.26-.69,11.36-1.03,18.29-1.03s13.03.34,18.29,1.03c5.26.69,9.81,1.71,13.65,3.07,3.84,1.36,7.02,3.04,9.56,5.03,2.54,2,4.57,4.31,6.1,6.93,1.53,2.62,2.6,5.55,3.23,8.79.63,3.24.94,6.78.94,10.62v14.47c0,2.62-.61,4.62-1.82,5.99-1.21,1.37-2.99,2.06-5.33,2.06h-31.66c-1.85,0-3.27-.54-4.24-1.63-.97-1.09-1.46-2.65-1.46-4.7v-15c0-.86-.13-1.56-.38-2.11-.26-.54-.67-.96-1.24-1.25s-1.32-.48-2.25-.58c-.93-.1-2.06-.14-3.4-.14s-2.43.05-3.36.14c-.93.1-1.68.29-2.25.58s-.99.7-1.26,1.25c-.27.54-.41,1.25-.41,2.11v81c0,.86.13,1.56.41,2.08.27.53.69.93,1.26,1.22s1.32.49,2.25.6c.93.11,2.05.17,3.36.17s2.47-.06,3.4-.17c.93-.11,1.68-.31,2.25-.6s.98-.69,1.24-1.22c.26-.53.38-1.22.38-2.08v-15c0-2.08.48-3.65,1.46-4.72.97-1.07,2.38-1.61,4.24-1.61h31.66c2.34,0,4.11.68,5.33,2.04,1.21,1.36,1.82,3.36,1.82,6.01v14.47c0,3.83-.31,7.37-.94,10.62-.63,3.24-1.7,6.17-3.23,8.79-1.53,2.62-3.56,4.93-6.1,6.93-2.54,2-5.73,3.67-9.56,5.03-3.84,1.36-8.39,2.38-13.65,3.07-5.26.69-11.36,1.03-18.29,1.03s-13.03-.34-18.29-1.03Z"/>
    </g>
    <g>
      <path class="cls-2" d="M66.75,65.04c0-.73-.12-1.34-.36-1.82-.24-.48-.6-.85-1.07-1.1-.47-.26-1.05-.43-1.73-.53-.68-.1-1.48-.14-2.4-.14h-4.02c-.91,0-1.61.27-2.1.81-.49.54-.73,1.33-.73,2.35v27.22c0,1.02.24,1.81.73,2.35.48.54,1.18.81,2.1.81h4.02c.91,0,1.71-.06,2.4-.17.68-.11,1.26-.29,1.73-.55.47-.26.83-.61,1.07-1.08.24-.46.36-1.06.36-1.8v-26.36ZM61.19,29.33c6.73,0,12.64.32,17.73.96,5.09.64,9.49,1.6,13.2,2.88,3.71,1.28,6.79,2.88,9.24,4.82,2.45,1.93,4.41,4.17,5.88,6.71,1.47,2.54,2.5,5.41,3.1,8.6.6,3.2.9,6.71.9,10.54v28.76c0,3.83-.3,7.35-.9,10.54-.6,3.2-1.63,6.06-3.1,8.6-1.47,2.54-3.43,4.78-5.88,6.71-2.45,1.93-5.53,3.54-9.24,4.82-3.71,1.28-8.11,2.24-13.2,2.88-5.09.64-11,.96-17.73.96h-3.38c-1.11,0-1.97.34-2.57,1.01-.6.67-.9,1.63-.9,2.88v39.49c0,2.72-.64,4.79-1.9,6.23-1.27,1.44-3.13,2.16-5.58,2.16h-29.52c-2.42,0-4.28-.72-5.56-2.16-1.28-1.44-1.93-3.51-1.93-6.23V37.72c0-2.75.64-4.83,1.93-6.25,1.28-1.42,3.14-2.13,5.56-2.13h43.86Z"/>
      <path class="cls-2" d="M114.45,142.05c0-.89.14-1.73.43-2.52.28-.78.68-1.45,1.18-2.01.5-.56,1.1-1,1.8-1.32.7-.32,1.45-.48,2.25-.48h32.77c.8,0,1.55.16,2.25.48.7.32,1.3.76,1.8,1.32.5.56.89,1.23,1.18,2.01.28.78.43,1.62.43,2.52v4.94c0,.61.13,1.11.38,1.51.26.4.64.72,1.16.96.51.24,1.18.41,1.99.5.81.1,1.78.14,2.89.14s2.07-.05,2.89-.14c.81-.1,1.48-.26,1.99-.5.51-.24.9-.56,1.16-.96.26-.4.38-.9.38-1.51v-26.36c0-.67-.08-1.25-.26-1.73-.17-.48-.49-.88-.96-1.2-.47-.32-1.11-.59-1.93-.81-.81-.22-1.88-.32-3.19-.48-1.12-.14-2.15-.51-3.1-.96-.96-.45-1.78-1.03-2.46-1.75-.68-.72-1.23-1.56-1.63-2.52-.4-.96-.6-2.03-.6-3.21v-12.08c0-1.18.18-2.26.54-3.23.36-.97.86-1.82,1.5-2.54.64-.72,1.41-1.29,2.29-1.73.88-.43,1.87-.74,2.95-.84,1.42-.13,2.58-.25,3.47-.46.88-.21,1.58-.47,2.08-.79.5-.32.84-.73,1.03-1.25.18-.51.28-1.12.28-1.82v-22.53c0-.61-.13-1.12-.38-1.53-.26-.42-.64-.74-1.16-.98-.51-.24-1.18-.4-1.99-.48-.81-.08-1.78-.12-2.89-.12s-2.08.04-2.89.12c-.81.08-1.48.24-1.99.48-.51.24-.9.57-1.16.98-.26.42-.38.93-.38,1.53v4.94c0,.89-.14,1.73-.43,2.52-.29.78-.68,1.45-1.18,2.01-.5.56-1.1,1-1.8,1.32-.7.32-1.45.48-2.25.48h-32.77c-.8,0-1.55-.16-2.25-.48-.7-.32-1.3-.76-1.8-1.32-.5-.56-.89-1.23-1.18-2.01-.29-.78-.43-1.62-.43-2.52v-4.22c0-3.51.32-6.81.96-9.9.64-3.08,1.73-5.9,3.25-8.46,1.53-2.56,3.54-4.83,6.05-6.83,2.51-2,5.63-3.69,9.37-5.08,3.74-1.39,8.15-2.44,13.24-3.16,5.09-.72,10.96-1.08,17.61-1.08s12.55.34,17.63,1.01,9.48,1.67,13.22,3c3.74,1.33,6.86,2.96,9.37,4.89,2.51,1.93,4.53,4.16,6.05,6.69,1.53,2.52,2.61,5.33,3.25,8.41.64,3.08.96,6.43.96,10.04v19.65c0,3.8-.31,7.23-.92,10.28-.61,3.05-1.78,5.73-3.49,8.03-.91,1.28-1.38,2.47-1.39,3.57-.01,1.1.43,2.31,1.35,3.62,1.71,2.4,2.88,5.14,3.51,8.24.63,3.1.94,6.55.94,10.35v23c0,3.61-.32,6.94-.96,9.99-.64,3.05-1.73,5.82-3.25,8.32-1.53,2.49-3.54,4.69-6.05,6.59-2.51,1.9-5.63,3.5-9.37,4.79-3.74,1.29-8.14,2.26-13.22,2.9-5.08.64-10.95.96-17.63.96s-12.52-.37-17.61-1.1c-5.09-.74-9.51-1.82-13.24-3.26-3.74-1.44-6.86-3.17-9.37-5.2-2.51-2.03-4.53-4.34-6.05-6.95-1.53-2.6-2.61-5.46-3.25-8.56-.64-3.1-.96-6.41-.96-9.92v-4.22Z"/>
      <path class="cls-2" d="M277.89,65.51c0-.86-.13-1.56-.38-2.11-.26-.54-.67-.96-1.24-1.25-.57-.29-1.32-.48-2.25-.58-.93-.1-2.06-.14-3.4-.14h-3.17c-.91,0-1.61.27-2.1.81-.49.54-.73,1.33-.73,2.35v78.98c0,1.02.24,1.81.73,2.35.48.54,1.18.81,2.1.81h3.17c1.34,0,2.47-.06,3.4-.17.93-.11,1.67-.31,2.25-.6.57-.29.98-.69,1.24-1.22.26-.53.38-1.22.38-2.08v-77.16ZM270.62,29.33c6.93,0,13.03.34,18.29,1.01s9.81,1.66,13.65,2.97c3.84,1.31,7.02,2.95,9.56,4.91,2.54,1.97,4.57,4.24,6.1,6.83,1.53,2.59,2.6,5.49,3.23,8.7.63,3.21.94,6.73.94,10.57v79.56c0,3.83-.31,7.36-.94,10.57-.63,3.21-1.71,6.11-3.23,8.7-1.53,2.59-3.56,4.86-6.1,6.83-2.54,1.97-5.73,3.6-9.56,4.91-3.84,1.31-8.39,2.3-13.65,2.97s-11.36,1.01-18.29,1.01h-43c-2.42,0-4.28-.72-5.56-2.16-1.28-1.44-1.92-3.51-1.92-6.23V37.72c0-2.75.64-4.83,1.92-6.25,1.28-1.42,3.14-2.13,5.56-2.13h43Z"/>
      <path class="cls-2" d="M360.15,180.23c-5.26-.69-9.81-1.71-13.65-3.07-3.84-1.36-7.02-3.04-9.56-5.03-2.54-2-4.57-4.31-6.1-6.93-1.53-2.62-2.6-5.55-3.23-8.79-.63-3.24-.94-6.78-.94-10.62V62.4c0-3.83.31-7.37.94-10.62.63-3.24,1.7-6.17,3.23-8.79,1.53-2.62,3.56-4.93,6.1-6.93,2.54-2,5.73-3.67,9.56-5.03,3.84-1.36,8.39-2.38,13.65-3.07,5.26-.69,11.36-1.03,18.29-1.03s13.03.34,18.29,1.03c5.26.69,9.81,1.71,13.65,3.07,3.84,1.36,7.02,3.04,9.56,5.03,2.54,2,4.57,4.31,6.1,6.93,1.53,2.62,2.6,5.55,3.23,8.79.63,3.24.94,6.78.94,10.62v14.47c0,2.62-.61,4.62-1.82,5.99-1.21,1.37-2.99,2.06-5.33,2.06h-31.66c-1.85,0-3.27-.54-4.24-1.63-.97-1.09-1.46-2.65-1.46-4.7v-15c0-.86-.13-1.56-.38-2.11-.26-.54-.67-.96-1.24-1.25s-1.32-.48-2.25-.58c-.93-.1-2.06-.14-3.4-.14s-2.43.05-3.36.14c-.93.1-1.68.29-2.25.58s-.99.7-1.26,1.25c-.27.54-.41,1.25-.41,2.11v81c0,.86.13,1.56.41,2.08.27.53.69.93,1.26,1.22s1.32.49,2.25.6c.93.11,2.05.17,3.36.17s2.47-.06,3.4-.17c.93-.11,1.68-.31,2.25-.6s.98-.69,1.24-1.22c.26-.53.38-1.22.38-2.08v-15c0-2.08.48-3.65,1.46-4.72.97-1.07,2.38-1.61,4.24-1.61h31.66c2.34,0,4.11.68,5.33,2.04,1.21,1.36,1.82,3.36,1.82,6.01v14.47c0,3.83-.31,7.37-.94,10.62-.63,3.24-1.7,6.17-3.23,8.79-1.53,2.62-3.56,4.93-6.1,6.93-2.54,2-5.73,3.67-9.56,5.03-3.84,1.36-8.39,2.38-13.65,3.07-5.26.69-11.36,1.03-18.29,1.03s-13.03-.34-18.29-1.03Z"/>
    </g>
    <g>
      <path class="cls-2" d="M65.29,63.39c0-.73-.12-1.34-.36-1.82-.24-.48-.6-.85-1.07-1.1-.47-.26-1.05-.43-1.73-.53-.68-.1-1.48-.14-2.4-.14h-4.02c-.91,0-1.61.27-2.1.81-.49.54-.73,1.33-.73,2.35v27.22c0,1.02.24,1.81.73,2.35.48.54,1.18.81,2.1.81h4.02c.91,0,1.71-.06,2.4-.17.68-.11,1.26-.29,1.73-.55.47-.26.83-.61,1.07-1.08.24-.46.36-1.06.36-1.8v-26.36ZM59.73,27.68c6.73,0,12.64.32,17.73.96,5.09.64,9.49,1.6,13.2,2.88,3.71,1.28,6.79,2.88,9.24,4.82,2.45,1.93,4.41,4.17,5.88,6.71,1.47,2.54,2.5,5.41,3.1,8.6.6,3.2.9,6.71.9,10.54v28.76c0,3.83-.3,7.35-.9,10.54-.6,3.2-1.63,6.06-3.1,8.6-1.47,2.54-3.43,4.78-5.88,6.71-2.45,1.93-5.53,3.54-9.24,4.82-3.71,1.28-8.11,2.24-13.2,2.88-5.09.64-11,.96-17.73.96h-3.38c-1.11,0-1.97.34-2.57,1.01-.6.67-.9,1.63-.9,2.88v39.49c0,2.72-.64,4.79-1.9,6.23-1.27,1.44-3.13,2.16-5.58,2.16H15.87c-2.42,0-4.28-.72-5.56-2.16-1.28-1.44-1.93-3.51-1.93-6.23V36.07c0-2.75.64-4.83,1.93-6.25,1.28-1.42,3.14-2.13,5.56-2.13h43.86Z"/>
      <path class="cls-2" d="M113,140.41c0-.89.14-1.73.43-2.52.28-.78.68-1.45,1.18-2.01.5-.56,1.1-1,1.8-1.32.7-.32,1.45-.48,2.25-.48h32.77c.8,0,1.55.16,2.25.48.7.32,1.3.76,1.8,1.32.5.56.89,1.23,1.18,2.01.28.78.43,1.62.43,2.52v4.94c0,.61.13,1.11.38,1.51.26.4.64.72,1.16.96.51.24,1.18.41,1.99.5.81.1,1.78.14,2.89.14s2.07-.05,2.89-.14c.81-.1,1.48-.26,1.99-.5.51-.24.9-.56,1.16-.96.26-.4.38-.9.38-1.51v-26.36c0-.67-.08-1.25-.26-1.73-.17-.48-.49-.88-.96-1.2-.47-.32-1.11-.59-1.93-.81-.81-.22-1.88-.32-3.19-.48-1.12-.14-2.15-.51-3.1-.96-.96-.45-1.78-1.03-2.46-1.75-.68-.72-1.23-1.56-1.63-2.52-.4-.96-.6-2.03-.6-3.21v-12.08c0-1.18.18-2.26.54-3.23.36-.97.86-1.82,1.5-2.54.64-.72,1.41-1.29,2.29-1.73.88-.43,1.87-.74,2.95-.84,1.42-.13,2.58-.25,3.47-.46.88-.21,1.58-.47,2.08-.79.5-.32.84-.73,1.03-1.25.18-.51.28-1.12.28-1.82v-22.53c0-.61-.13-1.12-.38-1.53-.26-.42-.64-.74-1.16-.98-.51-.24-1.18-.4-1.99-.48-.81-.08-1.78-.12-2.89-.12s-2.08.04-2.89.12c-.81.08-1.48.24-1.99.48-.51.24-.9.57-1.16.98-.26.42-.38.93-.38,1.53v4.94c0,.89-.14,1.73-.43,2.52-.29.78-.68,1.45-1.18,2.01-.5.56-1.1,1-1.8,1.32-.7.32-1.45.48-2.25.48h-32.77c-.8,0-1.55-.16-2.25-.48-.7-.32-1.3-.76-1.8-1.32-.5-.56-.89-1.23-1.18-2.01-.29-.78-.43-1.62-.43-2.52v-4.22c0-3.51.32-6.81.96-9.9.64-3.08,1.73-5.9,3.25-8.46,1.53-2.56,3.54-4.83,6.05-6.83,2.51-2,5.63-3.69,9.37-5.08,3.74-1.39,8.15-2.44,13.24-3.16,5.09-.72,10.96-1.08,17.61-1.08s12.55.34,17.63,1.01,9.48,1.67,13.22,3c3.74,1.33,6.86,2.96,9.37,4.89,2.51,1.93,4.53,4.16,6.05,6.69,1.53,2.52,2.61,5.33,3.25,8.41.64,3.08.96,6.43.96,10.04v19.65c0,3.8-.31,7.23-.92,10.28-.61,3.05-1.78,5.73-3.49,8.03-.91,1.28-1.38,2.47-1.39,3.57-.01,1.1.43,2.31,1.35,3.62,1.71,2.4,2.88,5.14,3.51,8.24.63,3.1.94,6.55.94,10.35v23c0,3.61-.32,6.94-.96,9.99-.64,3.05-1.73,5.82-3.25,8.32-1.53,2.49-3.54,4.69-6.05,6.59-2.51,1.9-5.63,3.5-9.37,4.79-3.74,1.29-8.14,2.26-13.22,2.9-5.08.64-10.95.96-17.63.96s-12.52-.37-17.61-1.1c-5.09-.74-9.51-1.82-13.24-3.26-3.74-1.44-6.86-3.17-9.37-5.2-2.51-2.03-4.53-4.34-6.05-6.95-1.53-2.6-2.61-5.46-3.25-8.56-.64-3.1-.96-6.41-.96-9.92v-4.22Z"/>
      <path class="cls-2" d="M276.44,63.87c0-.86-.13-1.56-.38-2.11-.26-.54-.67-.96-1.24-1.25-.57-.29-1.32-.48-2.25-.58-.93-.1-2.06-.14-3.4-.14h-3.17c-.91,0-1.61.27-2.1.81-.49.54-.73,1.33-.73,2.35v78.98c0,1.02.24,1.81.73,2.35.48.54,1.18.81,2.1.81h3.17c1.34,0,2.47-.06,3.4-.17.93-.11,1.67-.31,2.25-.6.57-.29.98-.69,1.24-1.22.26-.53.38-1.22.38-2.08V63.87ZM269.16,27.68c6.93,0,13.03.34,18.29,1.01s9.81,1.66,13.65,2.97c3.84,1.31,7.02,2.95,9.56,4.91,2.54,1.97,4.57,4.24,6.1,6.83,1.53,2.59,2.6,5.49,3.23,8.7.63,3.21.94,6.73.94,10.57v79.56c0,3.83-.31,7.36-.94,10.57-.63,3.21-1.71,6.11-3.23,8.7-1.53,2.59-3.56,4.86-6.1,6.83-2.54,1.97-5.73,3.6-9.56,4.91-3.84,1.31-8.39,2.3-13.65,2.97s-11.36,1.01-18.29,1.01h-43c-2.42,0-4.28-.72-5.56-2.16-1.28-1.44-1.92-3.51-1.92-6.23V36.07c0-2.75.64-4.83,1.92-6.25,1.28-1.42,3.14-2.13,5.56-2.13h43Z"/>
      <path class="cls-2" d="M358.69,178.58c-5.26-.69-9.81-1.71-13.65-3.07-3.84-1.36-7.02-3.04-9.56-5.03-2.54-2-4.57-4.31-6.1-6.93-1.53-2.62-2.6-5.55-3.23-8.79-.63-3.24-.94-6.78-.94-10.62V60.75c0-3.83.31-7.37.94-10.62.63-3.24,1.7-6.17,3.23-8.79,1.53-2.62,3.56-4.93,6.1-6.93,2.54-2,5.73-3.67,9.56-5.03,3.84-1.36,8.39-2.38,13.65-3.07,5.26-.69,11.36-1.03,18.29-1.03s13.03.34,18.29,1.03c5.26.69,9.81,1.71,13.65,3.07,3.84,1.36,7.02,3.04,9.56,5.03,2.54,2,4.57,4.31,6.1,6.93,1.53,2.62,2.6,5.55,3.23,8.79.63,3.24.94,6.78.94,10.62v14.47c0,2.62-.61,4.62-1.82,5.99-1.21,1.37-2.99,2.06-5.33,2.06h-31.66c-1.85,0-3.27-.54-4.24-1.63-.97-1.09-1.46-2.65-1.46-4.7v-15c0-.86-.13-1.56-.38-2.11-.26-.54-.67-.96-1.24-1.25s-1.32-.48-2.25-.58c-.93-.1-2.06-.14-3.4-.14s-2.43.05-3.36.14c-.93.1-1.68.29-2.25.58s-.99.7-1.26,1.25c-.27.54-.41,1.25-.41,2.11v81c0,.86.13,1.56.41,2.08.27.53.69.93,1.26,1.22s1.32.49,2.25.6c.93.11,2.05.17,3.36.17s2.47-.06,3.4-.17c.93-.11,1.68-.31,2.25-.6s.98-.69,1.24-1.22c.26-.53.38-1.22.38-2.08v-15c0-2.08.48-3.65,1.46-4.72.97-1.07,2.38-1.61,4.24-1.61h31.66c2.34,0,4.11.68,5.33,2.04,1.21,1.36,1.82,3.36,1.82,6.01v14.47c0,3.83-.31,7.37-.94,10.62-.63,3.24-1.7,6.17-3.23,8.79-1.53,2.62-3.56,4.93-6.1,6.93-2.54,2-5.73,3.67-9.56,5.03-3.84,1.36-8.39,2.38-13.65,3.07-5.26.69-11.36,1.03-18.29,1.03s-13.03-.34-18.29-1.03Z"/>
    </g>
    <g>
      <path class="cls-2" d="M63.84,61.74c0-.73-.12-1.34-.36-1.82-.24-.48-.6-.85-1.07-1.1-.47-.26-1.05-.43-1.73-.53-.68-.1-1.48-.14-2.4-.14h-4.02c-.91,0-1.61.27-2.1.81-.49.54-.73,1.33-.73,2.35v27.22c0,1.02.24,1.81.73,2.35.48.54,1.18.81,2.1.81h4.02c.91,0,1.71-.06,2.4-.17.68-.11,1.26-.29,1.73-.55.47-.26.83-.61,1.07-1.08.24-.46.36-1.06.36-1.8v-26.36ZM58.28,26.03c6.73,0,12.64.32,17.73.96,5.09.64,9.49,1.6,13.2,2.88,3.71,1.28,6.79,2.88,9.24,4.82,2.45,1.93,4.41,4.17,5.88,6.71,1.47,2.54,2.5,5.41,3.1,8.6.6,3.2.9,6.71.9,10.54v28.76c0,3.83-.3,7.35-.9,10.54-.6,3.2-1.63,6.06-3.1,8.6-1.47,2.54-3.43,4.78-5.88,6.71-2.45,1.93-5.53,3.54-9.24,4.82-3.71,1.28-8.11,2.24-13.2,2.88-5.09.64-11,.96-17.73.96h-3.38c-1.11,0-1.97.34-2.57,1.01-.6.67-.9,1.63-.9,2.88v39.49c0,2.72-.64,4.79-1.9,6.23-1.27,1.44-3.13,2.16-5.58,2.16H14.42c-2.42,0-4.28-.72-5.56-2.16-1.28-1.44-1.93-3.51-1.93-6.23V34.42c0-2.75.64-4.83,1.93-6.25,1.28-1.42,3.14-2.13,5.56-2.13h43.86Z"/>
      <path class="cls-2" d="M111.54,138.76c0-.89.14-1.73.43-2.52.28-.78.68-1.45,1.18-2.01.5-.56,1.1-1,1.8-1.32.7-.32,1.45-.48,2.25-.48h32.77c.8,0,1.55.16,2.25.48.7.32,1.3.76,1.8,1.32.5.56.89,1.23,1.18,2.01.28.78.43,1.62.43,2.52v4.94c0,.61.13,1.11.38,1.51.26.4.64.72,1.16.96.51.24,1.18.41,1.99.5.81.1,1.78.14,2.89.14s2.07-.05,2.89-.14c.81-.1,1.48-.26,1.99-.5.51-.24.9-.56,1.16-.96.26-.4.38-.9.38-1.51v-26.36c0-.67-.08-1.25-.26-1.73-.17-.48-.49-.88-.96-1.2-.47-.32-1.11-.59-1.93-.81-.81-.22-1.88-.32-3.19-.48-1.12-.14-2.15-.51-3.1-.96-.96-.45-1.78-1.03-2.46-1.75-.68-.72-1.23-1.56-1.63-2.52-.4-.96-.6-2.03-.6-3.21v-12.08c0-1.18.18-2.26.54-3.23.36-.97.86-1.82,1.5-2.54.64-.72,1.41-1.29,2.29-1.73.88-.43,1.87-.74,2.95-.84,1.42-.13,2.58-.25,3.47-.46.88-.21,1.58-.47,2.08-.79.5-.32.84-.73,1.03-1.25.18-.51.28-1.12.28-1.82v-22.53c0-.61-.13-1.12-.38-1.53-.26-.42-.64-.74-1.16-.98-.51-.24-1.18-.4-1.99-.48-.81-.08-1.78-.12-2.89-.12s-2.08.04-2.89.12c-.81.08-1.48.24-1.99.48-.51.24-.9.57-1.16.98-.26.42-.38.93-.38,1.53v4.94c0,.89-.14,1.73-.43,2.52-.29.78-.68,1.45-1.18,2.01-.5.56-1.1,1-1.8,1.32-.7.32-1.45.48-2.25.48h-32.77c-.8,0-1.55-.16-2.25-.48-.7-.32-1.3-.76-1.8-1.32-.5-.56-.89-1.23-1.18-2.01-.29-.78-.43-1.62-.43-2.52v-4.22c0-3.51.32-6.81.96-9.9.64-3.08,1.73-5.9,3.25-8.46,1.53-2.56,3.54-4.83,6.05-6.83,2.51-2,5.63-3.69,9.37-5.08,3.74-1.39,8.15-2.44,13.24-3.16,5.09-.72,10.96-1.08,17.61-1.08s12.55.34,17.63,1.01,9.48,1.67,13.22,3c3.74,1.33,6.86,2.96,9.37,4.89,2.51,1.93,4.53,4.16,6.05,6.69,1.53,2.52,2.61,5.33,3.25,8.41.64,3.08.96,6.43.96,10.04v19.65c0,3.8-.31,7.23-.92,10.28-.61,3.05-1.78,5.73-3.49,8.03-.91,1.28-1.38,2.47-1.39,3.57-.01,1.1.43,2.31,1.35,3.62,1.71,2.4,2.88,5.14,3.51,8.24.63,3.1.94,6.55.94,10.35v23c0,3.61-.32,6.94-.96,9.99-.64,3.05-1.73,5.82-3.25,8.32-1.53,2.49-3.54,4.69-6.05,6.59-2.51,1.9-5.63,3.5-9.37,4.79-3.74,1.29-8.14,2.26-13.22,2.9-5.08.64-10.95.96-17.63.96s-12.52-.37-17.61-1.1c-5.09-.74-9.51-1.82-13.24-3.26-3.74-1.44-6.86-3.17-9.37-5.2-2.51-2.03-4.53-4.34-6.05-6.95-1.53-2.6-2.61-5.46-3.25-8.56-.64-3.1-.96-6.41-.96-9.92v-4.22Z"/>
      <path class="cls-2" d="M274.98,62.22c0-.86-.13-1.56-.38-2.11-.26-.54-.67-.96-1.24-1.25-.57-.29-1.32-.48-2.25-.58-.93-.1-2.06-.14-3.4-.14h-3.17c-.91,0-1.61.27-2.1.81-.49.54-.73,1.33-.73,2.35v78.98c0,1.02.24,1.81.73,2.35.48.54,1.18.81,2.1.81h3.17c1.34,0,2.47-.06,3.4-.17.93-.11,1.67-.31,2.25-.6.57-.29.98-.69,1.24-1.22.26-.53.38-1.22.38-2.08V62.22ZM267.71,26.03c6.93,0,13.03.34,18.29,1.01s9.81,1.66,13.65,2.97c3.84,1.31,7.02,2.95,9.56,4.91,2.54,1.97,4.57,4.24,6.1,6.83,1.53,2.59,2.6,5.49,3.23,8.7.63,3.21.94,6.73.94,10.57v79.56c0,3.83-.31,7.36-.94,10.57-.63,3.21-1.71,6.11-3.23,8.7-1.53,2.59-3.56,4.86-6.1,6.83-2.54,1.97-5.73,3.6-9.56,4.91-3.84,1.31-8.39,2.3-13.65,2.97s-11.36,1.01-18.29,1.01h-43c-2.42,0-4.28-.72-5.56-2.16-1.28-1.44-1.92-3.51-1.92-6.23V34.42c0-2.75.64-4.83,1.92-6.25,1.28-1.42,3.14-2.13,5.56-2.13h43Z"/>
      <path class="cls-2" d="M357.24,176.93c-5.26-.69-9.81-1.71-13.65-3.07-3.84-1.36-7.02-3.04-9.56-5.03-2.54-2-4.57-4.31-6.1-6.93-1.53-2.62-2.6-5.55-3.23-8.79-.63-3.24-.94-6.78-.94-10.62V59.1c0-3.83.31-7.37.94-10.62.63-3.24,1.7-6.17,3.23-8.79,1.53-2.62,3.56-4.93,6.1-6.93,2.54-2,5.73-3.67,9.56-5.03,3.84-1.36,8.39-2.38,13.65-3.07,5.26-.69,11.36-1.03,18.29-1.03s13.03.34,18.29,1.03c5.26.69,9.81,1.71,13.65,3.07,3.84,1.36,7.02,3.04,9.56,5.03,2.54,2,4.57,4.31,6.1,6.93,1.53,2.62,2.6,5.55,3.23,8.79.63,3.24.94,6.78.94,10.62v14.47c0,2.62-.61,4.62-1.82,5.99-1.21,1.37-2.99,2.06-5.33,2.06h-31.66c-1.85,0-3.27-.54-4.24-1.63-.97-1.09-1.46-2.65-1.46-4.7v-15c0-.86-.13-1.56-.38-2.11-.26-.54-.67-.96-1.24-1.25s-1.32-.48-2.25-.58c-.93-.1-2.06-.14-3.4-.14s-2.43.05-3.36.14c-.93.1-1.68.29-2.25.58s-.99.7-1.26,1.25c-.27.54-.41,1.25-.41,2.11v81c0,.86.13,1.56.41,2.08.27.53.69.93,1.26,1.22s1.32.49,2.25.6c.93.11,2.05.17,3.36.17s2.47-.06,3.4-.17c.93-.11,1.68-.31,2.25-.6s.98-.69,1.24-1.22c.26-.53.38-1.22.38-2.08v-15c0-2.08.48-3.65,1.46-4.72.97-1.07,2.38-1.61,4.24-1.61h31.66c2.34,0,4.11.68,5.33,2.04,1.21,1.36,1.82,3.36,1.82,6.01v14.47c0,3.83-.31,7.37-.94,10.62-.63,3.24-1.7,6.17-3.23,8.79-1.53,2.62-3.56,4.93-6.1,6.93-2.54,2-5.73,3.67-9.56,5.03-3.84,1.36-8.39,2.38-13.65,3.07-5.26.69-11.36,1.03-18.29,1.03s-13.03-.34-18.29-1.03Z"/>
    </g>
    <g>
      <path class="cls-2" d="M62.38,60.09c0-.73-.12-1.34-.36-1.82-.24-.48-.6-.85-1.07-1.1-.47-.26-1.05-.43-1.73-.53-.68-.1-1.48-.14-2.4-.14h-4.02c-.91,0-1.61.27-2.1.81-.49.54-.73,1.33-.73,2.35v27.22c0,1.02.24,1.81.73,2.35.48.54,1.18.81,2.1.81h4.02c.91,0,1.71-.06,2.4-.17.68-.11,1.26-.29,1.73-.55.47-.26.83-.61,1.07-1.08.24-.46.36-1.06.36-1.8v-26.36ZM56.82,24.38c6.73,0,12.64.32,17.73.96,5.09.64,9.49,1.6,13.2,2.88,3.71,1.28,6.79,2.88,9.24,4.82,2.45,1.93,4.41,4.17,5.88,6.71,1.47,2.54,2.5,5.41,3.1,8.6.6,3.2.9,6.71.9,10.54v28.76c0,3.83-.3,7.35-.9,10.54-.6,3.2-1.63,6.06-3.1,8.6-1.47,2.54-3.43,4.78-5.88,6.71-2.45,1.93-5.53,3.54-9.24,4.82-3.71,1.28-8.11,2.24-13.2,2.88-5.09.64-11,.96-17.73.96h-3.38c-1.11,0-1.97.34-2.57,1.01-.6.67-.9,1.63-.9,2.88v39.49c0,2.72-.64,4.79-1.9,6.23-1.27,1.44-3.13,2.16-5.58,2.16H12.96c-2.42,0-4.28-.72-5.56-2.16-1.28-1.44-1.93-3.51-1.93-6.23V32.77c0-2.75.64-4.83,1.93-6.25,1.28-1.42,3.14-2.13,5.56-2.13h43.86Z"/>
      <path class="cls-2" d="M110.09,137.11c0-.89.14-1.73.43-2.52.28-.78.68-1.45,1.18-2.01.5-.56,1.1-1,1.8-1.32.7-.32,1.45-.48,2.25-.48h32.77c.8,0,1.55.16,2.25.48.7.32,1.3.76,1.8,1.32.5.56.89,1.23,1.18,2.01.28.78.43,1.62.43,2.52v4.94c0,.61.13,1.11.38,1.51.26.4.64.72,1.16.96.51.24,1.18.41,1.99.5.81.1,1.78.14,2.89.14s2.07-.05,2.89-.14c.81-.1,1.48-.26,1.99-.5.51-.24.9-.56,1.16-.96.26-.4.38-.9.38-1.51v-26.36c0-.67-.08-1.25-.26-1.73-.17-.48-.49-.88-.96-1.2-.47-.32-1.11-.59-1.93-.81-.81-.22-1.88-.32-3.19-.48-1.12-.14-2.15-.51-3.1-.96-.96-.45-1.78-1.03-2.46-1.75-.68-.72-1.23-1.56-1.63-2.52-.4-.96-.6-2.03-.6-3.21v-12.08c0-1.18.18-2.26.54-3.23.36-.97.86-1.82,1.5-2.54.64-.72,1.41-1.29,2.29-1.73.88-.43,1.87-.74,2.95-.84,1.42-.13,2.58-.25,3.47-.46.88-.21,1.58-.47,2.08-.79.5-.32.84-.73,1.03-1.25.18-.51.28-1.12.28-1.82v-22.53c0-.61-.13-1.12-.38-1.53-.26-.42-.64-.74-1.16-.98-.51-.24-1.18-.4-1.99-.48-.81-.08-1.78-.12-2.89-.12s-2.08.04-2.89.12c-.81.08-1.48.24-1.99.48-.51.24-.9.57-1.16.98-.26.42-.38.93-.38,1.53v4.94c0,.89-.14,1.73-.43,2.52-.29.78-.68,1.45-1.18,2.01-.5.56-1.1,1-1.8,1.32-.7.32-1.45.48-2.25.48h-32.77c-.8,0-1.55-.16-2.25-.48-.7-.32-1.3-.76-1.8-1.32-.5-.56-.89-1.23-1.18-2.01-.29-.78-.43-1.62-.43-2.52v-4.22c0-3.51.32-6.81.96-9.9.64-3.08,1.73-5.9,3.25-8.46,1.53-2.56,3.54-4.83,6.05-6.83,2.51-2,5.63-3.69,9.37-5.08,3.74-1.39,8.15-2.44,13.24-3.16,5.09-.72,10.96-1.08,17.61-1.08s12.55.34,17.63,1.01,9.48,1.67,13.22,3c3.74,1.33,6.86,2.96,9.37,4.89,2.51,1.93,4.53,4.16,6.05,6.69,1.53,2.52,2.61,5.33,3.25,8.41.64,3.08.96,6.43.96,10.04v19.65c0,3.8-.31,7.23-.92,10.28-.61,3.05-1.78,5.73-3.49,8.03-.91,1.28-1.38,2.47-1.39,3.57-.01,1.1.43,2.31,1.35,3.62,1.71,2.4,2.88,5.14,3.51,8.24.63,3.1.94,6.55.94,10.35v23c0,3.61-.32,6.94-.96,9.99-.64,3.05-1.73,5.82-3.25,8.32-1.53,2.49-3.54,4.69-6.05,6.59-2.51,1.9-5.63,3.5-9.37,4.79-3.74,1.29-8.14,2.26-13.22,2.9-5.08.64-10.95.96-17.63.96s-12.52-.37-17.61-1.1c-5.09-.74-9.51-1.82-13.24-3.26-3.74-1.44-6.86-3.17-9.37-5.2-2.51-2.03-4.53-4.34-6.05-6.95-1.53-2.6-2.61-5.46-3.25-8.56-.64-3.1-.96-6.41-.96-9.92v-4.22Z"/>
      <path class="cls-2" d="M273.53,60.57c0-.86-.13-1.56-.38-2.11-.26-.54-.67-.96-1.24-1.25-.57-.29-1.32-.48-2.25-.58-.93-.1-2.06-.14-3.4-.14h-3.17c-.91,0-1.61.27-2.1.81-.49.54-.73,1.33-.73,2.35v78.98c0,1.02.24,1.81.73,2.35.48.54,1.18.81,2.1.81h3.17c1.34,0,2.47-.06,3.4-.17.93-.11,1.67-.31,2.25-.6.57-.29.98-.69,1.24-1.22.26-.53.38-1.22.38-2.08V60.57ZM266.25,24.38c6.93,0,13.03.34,18.29,1.01s9.81,1.66,13.65,2.97c3.84,1.31,7.02,2.95,9.56,4.91,2.54,1.97,4.57,4.24,6.1,6.83,1.53,2.59,2.6,5.49,3.23,8.7.63,3.21.94,6.73.94,10.57v79.56c0,3.83-.31,7.36-.94,10.57-.63,3.21-1.71,6.11-3.23,8.7-1.53,2.59-3.56,4.86-6.1,6.83-2.54,1.97-5.73,3.6-9.56,4.91-3.84,1.31-8.39,2.3-13.65,2.97s-11.36,1.01-18.29,1.01h-43c-2.42,0-4.28-.72-5.56-2.16-1.28-1.44-1.92-3.51-1.92-6.23V32.77c0-2.75.64-4.83,1.92-6.25,1.28-1.42,3.14-2.13,5.56-2.13h43Z"/>
      <path class="cls-2" d="M355.78,175.28c-5.26-.69-9.81-1.71-13.65-3.07-3.84-1.36-7.02-3.04-9.56-5.03-2.54-2-4.57-4.31-6.1-6.93-1.53-2.62-2.6-5.55-3.23-8.79-.63-3.24-.94-6.78-.94-10.62V57.45c0-3.83.31-7.37.94-10.62.63-3.24,1.7-6.17,3.23-8.79,1.53-2.62,3.56-4.93,6.1-6.93,2.54-2,5.73-3.67,9.56-5.03,3.84-1.36,8.39-2.38,13.65-3.07,5.26-.69,11.36-1.03,18.29-1.03s13.03.34,18.29,1.03c5.26.69,9.81,1.71,13.65,3.07,3.84,1.36,7.02,3.04,9.56,5.03,2.54,2,4.57,4.31,6.1,6.93,1.53,2.62,2.6,5.55,3.23,8.79.63,3.24.94,6.78.94,10.62v14.47c0,2.62-.61,4.62-1.82,5.99-1.21,1.37-2.99,2.06-5.33,2.06h-31.66c-1.85,0-3.27-.54-4.24-1.63-.97-1.09-1.46-2.65-1.46-4.7v-15c0-.86-.13-1.56-.38-2.11-.26-.54-.67-.96-1.24-1.25s-1.32-.48-2.25-.58c-.93-.1-2.06-.14-3.4-.14s-2.43.05-3.36.14c-.93.1-1.68.29-2.25.58s-.99.7-1.26,1.25c-.27.54-.41,1.25-.41,2.11v81c0,.86.13,1.56.41,2.08.27.53.69.93,1.26,1.22s1.32.49,2.25.6c.93.11,2.05.17,3.36.17s2.47-.06,3.4-.17c.93-.11,1.68-.31,2.25-.6s.98-.69,1.24-1.22c.26-.53.38-1.22.38-2.08v-15c0-2.08.48-3.65,1.46-4.72.97-1.07,2.38-1.61,4.24-1.61h31.66c2.34,0,4.11.68,5.33,2.04,1.21,1.36,1.82,3.36,1.82,6.01v14.47c0,3.83-.31,7.37-.94,10.62-.63,3.24-1.7,6.17-3.23,8.79-1.53,2.62-3.56,4.93-6.1,6.93-2.54,2-5.73,3.67-9.56,5.03-3.84,1.36-8.39,2.38-13.65,3.07-5.26.69-11.36,1.03-18.29,1.03s-13.03-.34-18.29-1.03Z"/>
    </g>
    <g>
      <path class="cls-2" d="M60.93,58.44c0-.73-.12-1.34-.36-1.82-.24-.48-.6-.85-1.07-1.1-.47-.26-1.05-.43-1.73-.53-.68-.1-1.48-.14-2.4-.14h-4.02c-.91,0-1.61.27-2.1.81-.49.54-.73,1.33-.73,2.35v27.22c0,1.02.24,1.81.73,2.35.48.54,1.18.81,2.1.81h4.02c.91,0,1.71-.06,2.4-.17.68-.11,1.26-.29,1.73-.55.47-.26.83-.61,1.07-1.08.24-.46.36-1.06.36-1.8v-26.36ZM55.37,22.74c6.73,0,12.64.32,17.73.96,5.09.64,9.49,1.6,13.2,2.88,3.71,1.28,6.79,2.88,9.24,4.82,2.45,1.93,4.41,4.17,5.88,6.71,1.47,2.54,2.5,5.41,3.1,8.6.6,3.2.9,6.71.9,10.54v28.76c0,3.83-.3,7.35-.9,10.54-.6,3.2-1.63,6.06-3.1,8.6-1.47,2.54-3.43,4.78-5.88,6.71-2.45,1.93-5.53,3.54-9.24,4.82-3.71,1.28-8.11,2.24-13.2,2.88-5.09.64-11,.96-17.73.96h-3.38c-1.11,0-1.97.34-2.57,1.01-.6.67-.9,1.63-.9,2.88v39.49c0,2.72-.64,4.79-1.9,6.23-1.27,1.44-3.13,2.16-5.58,2.16H11.51c-2.42,0-4.28-.72-5.56-2.16-1.28-1.44-1.93-3.51-1.93-6.23V31.12c0-2.75.64-4.83,1.93-6.25,1.28-1.42,3.14-2.13,5.56-2.13h43.86Z"/>
      <path class="cls-2" d="M108.63,135.46c0-.89.14-1.73.43-2.52.28-.78.68-1.45,1.18-2.01.5-.56,1.1-1,1.8-1.32.7-.32,1.45-.48,2.25-.48h32.77c.8,0,1.55.16,2.25.48.7.32,1.3.76,1.8,1.32.5.56.89,1.23,1.18,2.01.28.78.43,1.62.43,2.52v4.94c0,.61.13,1.11.38,1.51.26.4.64.72,1.16.96.51.24,1.18.41,1.99.5.81.1,1.78.14,2.89.14s2.07-.05,2.89-.14c.81-.1,1.48-.26,1.99-.5.51-.24.9-.56,1.16-.96.26-.4.38-.9.38-1.51v-26.36c0-.67-.08-1.25-.26-1.73-.17-.48-.49-.88-.96-1.2-.47-.32-1.11-.59-1.93-.81-.81-.22-1.88-.32-3.19-.48-1.12-.14-2.15-.51-3.1-.96-.96-.45-1.78-1.03-2.46-1.75-.68-.72-1.23-1.56-1.63-2.52-.4-.96-.6-2.03-.6-3.21v-12.08c0-1.18.18-2.26.54-3.23.36-.97.86-1.82,1.5-2.54.64-.72,1.41-1.29,2.29-1.73.88-.43,1.87-.74,2.95-.84,1.42-.13,2.58-.25,3.47-.46.88-.21,1.58-.47,2.08-.79.5-.32.84-.73,1.03-1.25.18-.51.28-1.12.28-1.82v-22.53c0-.61-.13-1.12-.38-1.53-.26-.42-.64-.74-1.16-.98-.51-.24-1.18-.4-1.99-.48-.81-.08-1.78-.12-2.89-.12s-2.08.04-2.89.12c-.81.08-1.48.24-1.99.48-.51.24-.9.57-1.16.98-.26.42-.38.93-.38,1.53v4.94c0,.89-.14,1.73-.43,2.52-.29.78-.68,1.45-1.18,2.01-.5.56-1.1,1-1.8,1.32-.7.32-1.45.48-2.25.48h-32.77c-.8,0-1.55-.16-2.25-.48-.7-.32-1.3-.76-1.8-1.32-.5-.56-.89-1.23-1.18-2.01-.29-.78-.43-1.62-.43-2.52v-4.22c0-3.51.32-6.81.96-9.9.64-3.08,1.73-5.9,3.25-8.46,1.53-2.56,3.54-4.83,6.05-6.83,2.51-2,5.63-3.69,9.37-5.08,3.74-1.39,8.15-2.44,13.24-3.16,5.09-.72,10.96-1.08,17.61-1.08s12.55.34,17.63,1.01,9.48,1.67,13.22,3c3.74,1.33,6.86,2.96,9.37,4.89,2.51,1.93,4.53,4.16,6.05,6.69,1.53,2.52,2.61,5.33,3.25,8.41.64,3.08.96,6.43.96,10.04v19.65c0,3.8-.31,7.23-.92,10.28-.61,3.05-1.78,5.73-3.49,8.03-.91,1.28-1.38,2.47-1.39,3.57-.01,1.1.43,2.31,1.35,3.62,1.71,2.4,2.88,5.14,3.51,8.24.63,3.1.94,6.55.94,10.35v23c0,3.61-.32,6.94-.96,9.99-.64,3.05-1.73,5.82-3.25,8.32-1.53,2.49-3.54,4.69-6.05,6.59-2.51,1.9-5.63,3.5-9.37,4.79-3.74,1.29-8.14,2.26-13.22,2.9-5.08.64-10.95.96-17.63.96s-12.52-.37-17.61-1.1c-5.09-.74-9.51-1.82-13.24-3.26-3.74-1.44-6.86-3.17-9.37-5.2-2.51-2.03-4.53-4.34-6.05-6.95-1.53-2.6-2.61-5.46-3.25-8.56-.64-3.1-.96-6.41-.96-9.92v-4.22Z"/>
      <path class="cls-2" d="M272.07,58.92c0-.86-.13-1.56-.38-2.11-.26-.54-.67-.96-1.24-1.25-.57-.29-1.32-.48-2.25-.58-.93-.1-2.06-.14-3.4-.14h-3.17c-.91,0-1.61.27-2.1.81-.49.54-.73,1.33-.73,2.35v78.98c0,1.02.24,1.81.73,2.35.48.54,1.18.81,2.1.81h3.17c1.34,0,2.47-.06,3.4-.17.93-.11,1.67-.31,2.25-.6.57-.29.98-.69,1.24-1.22.26-.53.38-1.22.38-2.08V58.92ZM264.8,22.74c6.93,0,13.03.34,18.29,1.01s9.81,1.66,13.65,2.97c3.84,1.31,7.02,2.95,9.56,4.91,2.54,1.97,4.57,4.24,6.1,6.83,1.53,2.59,2.6,5.49,3.23,8.7.63,3.21.94,6.73.94,10.57v79.56c0,3.83-.31,7.36-.94,10.57-.63,3.21-1.71,6.11-3.23,8.7-1.53,2.59-3.56,4.86-6.1,6.83-2.54,1.97-5.73,3.6-9.56,4.91-3.84,1.31-8.39,2.3-13.65,2.97s-11.36,1.01-18.29,1.01h-43c-2.42,0-4.28-.72-5.56-2.16-1.28-1.44-1.92-3.51-1.92-6.23V31.12c0-2.75.64-4.83,1.92-6.25,1.28-1.42,3.14-2.13,5.56-2.13h43Z"/>
      <path class="cls-2" d="M354.33,173.63c-5.26-.69-9.81-1.71-13.65-3.07-3.84-1.36-7.02-3.04-9.56-5.03-2.54-2-4.57-4.31-6.1-6.93-1.53-2.62-2.6-5.55-3.23-8.79-.63-3.24-.94-6.78-.94-10.62V55.81c0-3.83.31-7.37.94-10.62.63-3.24,1.7-6.17,3.23-8.79,1.53-2.62,3.56-4.93,6.1-6.93,2.54-2,5.73-3.67,9.56-5.03,3.84-1.36,8.39-2.38,13.65-3.07,5.26-.69,11.36-1.03,18.29-1.03s13.03.34,18.29,1.03c5.26.69,9.81,1.71,13.65,3.07,3.84,1.36,7.02,3.04,9.56,5.03,2.54,2,4.57,4.31,6.1,6.93,1.53,2.62,2.6,5.55,3.23,8.79.63,3.24.94,6.78.94,10.62v14.47c0,2.62-.61,4.62-1.82,5.99-1.21,1.37-2.99,2.06-5.33,2.06h-31.66c-1.85,0-3.27-.54-4.24-1.63-.97-1.09-1.46-2.65-1.46-4.7v-15c0-.86-.13-1.56-.38-2.11-.26-.54-.67-.96-1.24-1.25s-1.32-.48-2.25-.58c-.93-.1-2.06-.14-3.4-.14s-2.43.05-3.36.14c-.93.1-1.68.29-2.25.58s-.99.7-1.26,1.25c-.27.54-.41,1.25-.41,2.11v81c0,.86.13,1.56.41,2.08.27.53.69.93,1.26,1.22s1.32.49,2.25.6c.93.11,2.05.17,3.36.17s2.47-.06,3.4-.17c.93-.11,1.68-.31,2.25-.6s.98-.69,1.24-1.22c.26-.53.38-1.22.38-2.08v-15c0-2.08.48-3.65,1.46-4.72.97-1.07,2.38-1.61,4.24-1.61h31.66c2.34,0,4.11.68,5.33,2.04,1.21,1.36,1.82,3.36,1.82,6.01v14.47c0,3.83-.31,7.37-.94,10.62-.63,3.24-1.7,6.17-3.23,8.79-1.53,2.62-3.56,4.93-6.1,6.93-2.54,2-5.73,3.67-9.56,5.03-3.84,1.36-8.39,2.38-13.65,3.07-5.26.69-11.36,1.03-18.29,1.03s-13.03-.34-18.29-1.03Z"/>
    </g>
    <text class="cls-1" transform="translate(0 170.62) scale(.89 1)"><tspan x="0" y="0">P3DC</tspan></text>
  </g>
  <text class="cls-3" transform="translate(.71 173.73) scale(.88 1)"><tspan x="0" y="0">P3DC</tspan></text>
</svg>